<?xml version="1.0" encoding="utf-8"?>
<!-- Generator: Adobe Illustrator 22.0.1, SVG Export Plug-In . SVG Version: 6.00 Build 0)  -->
<svg version="1.1" id="레이어_2" xmlns="http://www.w3.org/2000/svg" xmlns:xlink="http://www.w3.org/1999/xlink" x="0px"
	 y="0px" viewBox="0 0 800 533" style="enable-background:new 0 0 800 533;" xml:space="preserve">
<style type="text/css">
	.st0{fill:#FFFFFF;}
	.st1{fill:#282828;}
	.st2{fill:#B3B3B3;}
	.st3{fill:#F83A10;}
	.st4{fill:#C6321A;}
	.st5{fill:none;stroke:#282828;stroke-width:2;stroke-linecap:round;stroke-linejoin:round;stroke-miterlimit:10;}
</style>
<g>
	<rect class="st0" width="800" height="533"/>
	<g>
		<path class="st1" d="M406.4,90.9c0,0,22.6,12.4,47.5,8.9l13.8-20c0,0-1.2-3.7-7.1,0.2c-2.2,2.4-3-1-6.3,0.8
			c-3.3,1.8,4.2,6-3.5,7.9c0,0-12.9-2.8-15.3-3.7c0,0-1.7-2.7,0.3-4.7c2-2,5.2-3.9,6-6.8c0.7-2.8-4.1,0.1-4.2-2.7
			c-0.1-2.8,0.1-8.2-2.5-7.8c-2.6,0.5-4.1,6.1-5.7,7.1c-1.6,1-1.7-1.8-4.1,0.1c-2.4,1.9,7.1,5.9,4,12.5c0,0-11.2-3-17.7-1.8
			c0,0-1.3-2.2,0.9-4.9c2.2-2.7-1.5-5.4-2.2-5.8c-0.7-0.4-2.7,0.6-4.6-2.2s-3.6-3.7-6-1.7L406.4,90.9z"/>
		<path class="st2" d="M446.3,99.2c-19,0.5-35.5-7.5-38.4-9.1l-6.2-22.7c0.3-0.2,0.6-0.3,0.9-0.3c0.5,0,1.3,0.2,2.6,2.2
			c1.7,2.5,3.6,2.5,4.6,2.6c0.1,0,0.2,0,0.3,0c0.8,0.6,2,1.7,2.1,2.6c0,0.2,0,0.5-0.3,1c-2.2,2.7-1.6,5.5-1,6.6
			c0.2,0.4,0.6,0.6,1,0.6c0,0,0.1,0,0.1,0c0.7-0.1,1.5-0.2,2.4-0.2c6.1-0.2,14.3,2,14.4,2c0.1,0,0.2,0,0.3,0c0.4,0,0.8-0.3,1-0.7
			c2.2-4.8-1-8.5-2.9-10.7c-0.4-0.5-0.9-1-1.2-1.4c0.3-0.2,0.5-0.2,0.5-0.2c0.1,0,0.2,0.1,0.4,0.2c0.3,0.2,0.8,0.6,1.5,0.6
			c0.4,0,0.8-0.1,1.2-0.4c0.9-0.6,1.6-1.8,2.4-3.3c0.8-1.5,1.8-3.4,2.8-3.6c0,0,0.1,0,0.1,0c0.1,0,0.1,0,0.2,0.1
			c0.7,0.7,0.7,3.9,0.7,5.4c0,0.3,0,0.6,0,0.9c0.1,2.8,2.5,2.7,3.6,2.7c0.1,0,0.3,0,0.4,0c-0.6,1.4-2.1,2.7-3.5,4
			c-0.6,0.5-1.2,1.1-1.8,1.6c-2.2,2.2-1.3,5.2-0.5,6.5c0.2,0.2,0.4,0.4,0.6,0.5c2.4,0.9,14.6,3.6,15.1,3.8c0.1,0,0.2,0,0.3,0
			c0.1,0,0.1,0,0.2,0c2.3-0.6,3.7-1.4,4.2-2.7c0.6-1.5,0.1-2.9-0.3-3.9c-0.1-0.3-0.4-0.9-0.4-1.1c0,0,0.1-0.1,0.2-0.1
			c0.5-0.3,0.9-0.4,1.3-0.4c0.4,0,0.8,0.1,1.2,0.3c0.5,0.2,1,0.4,1.6,0.3c0.8,0,1.5-0.4,2.2-1.1c1.8-1.2,3-1.5,3.7-1.5
			c0.5,0,0.8,0.1,1,0.2l-12.5,18.4C450.6,98.9,448.4,99.1,446.3,99.2C446.3,99.2,446.3,99.2,446.3,99.2z"/>
		<path class="st1" d="M316.1,390.1c0,0-8.4-0.5-8.3-7.1c0.2-6.6-5.1-9.4-10.3-6.4c-5.2,2.9-11.8,14.1,0.3,15.2
			c2.9-0.5,2.9,5.2,9.4,6.3C307.2,398,315.6,392.8,316.1,390.1z"/>
		<path class="st3" d="M306.8,396.1c-2.4-0.6-3.5-2.1-4.6-3.5c-0.9-1.2-1.8-2.4-3.5-2.7c-0.3-0.1-0.6-0.1-1,0
			c-0.3,0-0.6-0.1-0.9-0.1c-2.4-0.4-3.7-1.3-4-2.7c-0.5-2.8,2.7-7.3,5.5-8.8c1.4-0.8,2.7-1.1,3.9-0.9c2.3,0.4,3.6,2.5,3.6,5.6
			c-0.1,4.1,2.5,7.1,7,8.4C311.6,392.7,309.3,394.5,306.8,396.1z"/>
		<path class="st1" d="M298.9,376.2c0,0-11.6-3.2-18,4.6c-1.3,1.1,8.9-1.1,13.2,5.1C298.3,392.1,304.7,377.8,298.9,376.2z"/>
		<path class="st0" d="M284.6,379.7c5.8-4,13.8-1.9,13.9-1.8c0.3,0.1,0.5,0.2,0.6,0.4c0.6,0.7,0.6,2.5,0,4.2
			c-0.7,1.9-1.8,3.2-2.5,3.4c-0.1,0-0.4,0.1-0.9-0.5c0,0,0,0,0,0c-0.1-0.1-0.2-0.2-0.3-0.3c-0.2-0.3-0.5-0.6-0.7-0.9
			C291.9,380.8,287.6,379.9,284.6,379.7z"/>
		<path class="st3" d="M431.8,386.2C431.8,386.2,431.8,386.2,431.8,386.2c-0.1,0.4-0.6,0.7-1,0.6c-0.4,0-0.7-0.1-1.1-0.2
			c-3.5-0.6-6.8-2-9.7-3.3c-2.1-0.9-3.8-1.7-5.2-1.9c-1.1-0.2-2,0-2.6,0.5c-0.7,0.6-1,1.5-1.1,2.8c-0.4,6.8,2.4,12.5,8.4,16.7
			c0.3,0.2,0.5,0.7,0.4,1.1c-0.1,0.4-0.5,0.6-0.9,0.6c-1.5,0-2.9-0.1-4.1-0.3c-9.5-1.6-10.1-8-10.5-12.3c-0.2-2.3-0.5-3.7-1.8-3.9
			c-1-0.2-2.2,0.6-4.4,2.9c-6.6,6.8-2.8,12.6-0.8,15.7l0.1,0.2c0.2,0.3,0.2,0.7,0,1c-0.2,0.3-0.5,0.5-0.9,0.4c-0.1,0-0.2,0-0.4-0.1
			c-3.1-0.5-4.8-3.6-6.2-6.2c-1.2-2.2-1.9-3.5-3.3-3.7c-1.7-0.3-3.1,1.8-3.6,2.6c-3.6,5.4,0.2,9.5,2.4,12l0.4,0.5
			c0.2,0.2,0.3,0.6,0.2,0.9c-0.1,0.3-0.3,0.5-0.6,0.6c-1.4,0.4-2.6,0.6-3.7,0.4c-2.2-0.4-4.9-2.5-5.2-10.5
			c-0.3-9.3-7.3-15.5-12.2-16.3c-1.8-0.3-3.4,0.1-4.5,1.1c-0.8,0.8-1.7,2.2-1.4,5c0.4,4.4,0.6,7.3-1.1,8.9c-1.6,1.5-4.4,1.8-9.6,2.3
			c-1.4,0.1-2.6,0.1-3.5,0c-2-0.3-2.8-1.2-3.7-2.2c-0.9-1-2-2.2-4.2-2.6c-1.3-0.2-2.9-0.1-4.9,0.2c-2,0.4-3.2,1.1-3.9,2.1
			c-0.9,1.5-0.3,3.4,0.3,5.2c0.6,1.9,1.3,3.9,0.3,5.6c-1,1.8-3.8,3.1-8.2,4.1c-3.2,0.7-5.7,0.9-7.4,0.6c-1.2-0.2-1.9-0.6-2.3-1.2
			c-0.8-1.2-0.3-3.3,0.5-5.9c0.8-2.8,1.2-4.8-0.5-5.6c-0.2-0.1-0.5-0.2-0.8-0.2c-2-0.3-3.8,1.1-6.2,3c-2.5,2-5.3,4.3-9.1,5
			c-2.7,0.5-5.1,0.6-7,0.3c-2.1-0.3-3.6-1.2-4.4-2.5c-1.1-1.8-1-4.5,0.1-8.1c1.8-5.5,5.4-6.2,11.2-6.9c4.4-0.6,9.5-1.2,13.4-5.6
			c6.3-7,11.1-6.5,15.9-6.1c1.1,0.1,2.3,0.2,3.4,0.2c3,0,5.1-2.7,7.7-6c3-3.8,6.4-8.2,12.1-9.7c15.9-4.3,24.3-15,24.8-31.9
			c0.3-10.1,6.2-17.5,11.1-21.9c3.3-3,6.9-5.3,10.4-7c0.5-0.2,1-0.5,1.5-0.7c1.8-0.8,3.6-1.4,5.2-1.8c0.5-0.1,1-0.2,1.5-0.3
			c1.2-0.2,2.3-0.3,3.2-0.4c0.3,0,0.6,0,0.9,0c0.7,0.1,1.4,0,2,0c0.5,0,1.1-0.1,1.6-0.3c1.8-0.4,3.5-1.3,5-2.4
			c0.4-0.3,0.9-0.6,1.3-1c3.2-2.7,5.4-6.3,6.6-8.4c0.1-0.2,0.3-0.4,0.6-0.5c0.1,0,0.3,0,0.4,0c0.1,0,0.2,0.1,0.3,0.1l14.3,8.7
			c0.3,0.2,0.5,0.6,0.4,1c-1.6,7.5-3.8,12.6-6.5,16.1c-0.3,0.4-0.6,0.8-0.9,1.2c-3.4,4-7.3,5.6-10.9,6.2c-0.6,0.1-1.2,0.2-1.7,0.3
			c-1.5,0.2-2.9,0.3-4.1,0.3c-3.4,0.2-5.9,0.4-6.6,2.3l0,0c-0.1,0.3-0.2,0.7-0.2,1.2c0,0.5-0.1,1.1-0.2,1.7c-0.5,2.6-1.9,5.8-3.3,9
			c-0.6,1.5-1.2,2.9-1.8,4.2c-0.2,0.6-0.5,1.2-0.7,1.8c-1,2.9-1.4,5.3-0.7,7c0.4,0.9,1.2,1.5,2.2,1.9c6.4,2,12.9,5,16.4,16.4
			c2.1,6.7,8,11.1,12.3,13.9C431.8,385.3,431.9,385.8,431.8,386.2z"/>
		<path class="st1" d="M346.2,380.2c0.2-0.9,0.4-1.7,0.8-2.5c0.2-0.4,0.4-0.8,0.6-1.2c0.2-0.4,0.4-0.8,0.7-1.1
			c1-1.5,2.2-2.8,3.7-3.8c0.4-0.3,0.8-0.5,1.2-0.7c0.4-0.2,0.8-0.5,1.2-0.6l1.3-0.5c0.4-0.1,0.9-0.3,1.4-0.4l0.7-0.2
			c0.2-0.1,0.5-0.1,0.7-0.1l1.4-0.2c1-0.1,1.9-0.1,2.9-0.2c0.3,0,0.6,0.2,0.7,0.5c0,0.3-0.2,0.5-0.5,0.6l-0.1,0
			c-0.9,0.1-1.8,0.2-2.7,0.3l-1.3,0.2c-0.2,0-0.4,0.1-0.6,0.1l-0.6,0.2c-1.7,0.4-3.2,1.2-4.6,2.1c-0.3,0.2-0.7,0.5-1,0.7l-0.9,0.8
			l-0.8,0.9l-0.7,1c-0.2,0.3-0.4,0.7-0.7,1c-0.2,0.4-0.4,0.7-0.6,1.1c-0.4,0.7-0.7,1.5-0.9,2.2l0,0.1c-0.1,0.3-0.4,0.4-0.7,0.4
			C346.4,380.8,346.2,380.5,346.2,380.2z"/>
		<path class="st4" d="M431.8,386.2c-8.2-2.9-17.9-7.4-19.4-12.2c-2.5-8-9.1-13.8-20.7-17.6c-11.7-3.8-0.6-30.4,10.1-38
			c6.2-4.4,5-10.1,3-14c0.3,0,0.6,0,0.9,0c8.6,0.6,14.4-8.2,16.4-12.1c0.1-0.2,0.3-0.4,0.6-0.5c0.1,0,0.3,0,0.4,0
			c0.1,0,0.2,0.1,0.3,0.1l14.3,8.7c0.3,0.2,0.5,0.6,0.4,1c-4.9,23.2-16.5,23.8-24.2,24.2c-4.1,0.2-6.7,0.5-6.9,3.5
			c-0.1,2.8-1.8,6.8-3.5,10.7c-2.3,5.5-4.4,10.2-3.1,13c0.4,0.9,1.2,1.5,2.2,1.9c6.4,2,12.9,5,16.4,16.4c2.1,6.7,8,11.1,12.3,13.9
			C431.8,385.3,431.9,385.8,431.8,386.2z"/>
		<path class="st1" d="M388.3,355.3c2.1,1.4,4.1,2.9,5.8,4.8c1.7,1.8,3.2,4.1,3.5,6.7c0.1,1.3-0.1,2.7-0.8,3.8
			c-0.6,1.2-1.5,2.1-2.5,2.9c-0.5,0.4-1,0.8-1.5,1.1l-1.6,1c-0.5,0.3-1.1,0.6-1.6,0.9c-0.6,0.3-1.1,0.6-1.7,0.9
			c-2.2,1.1-4.7,1.9-7.2,2.2c-2.5,0.3-5,0.1-7.4,0.3c-1.2,0.1-2.4,0.3-3.6,0.6c-0.6,0.2-1.2,0.4-1.7,0.5l-1.8,0.6
			c-1.2,0.4-2.4,0.7-3.6,1c-0.6,0.1-1.2,0.3-1.9,0.3c-0.3,0-0.7,0-1,0c-0.2,0-0.4-0.1-0.6-0.2c-0.2-0.1-0.5-0.3-0.5-0.8
			c0-0.3,0.3-0.4,0.5-0.4c0.3,0,0.4,0.3,0.4,0.5c0-0.2,0-0.2,0-0.2c0.1,0,0.2,0,0.3,0c0.2,0,0.5,0,0.8-0.1c0.6-0.1,1.1-0.2,1.7-0.4
			c1.2-0.3,2.3-0.7,3.4-1.2l1.7-0.7c0.6-0.2,1.2-0.4,1.8-0.6c1.3-0.3,2.5-0.6,3.8-0.7c2.6-0.3,5.1-0.1,7.3-0.4
			c2.3-0.3,4.5-1.1,6.6-2.1c0.5-0.2,1-0.6,1.6-0.8c0.5-0.3,1-0.6,1.5-0.9l1.5-1c0.5-0.3,1-0.6,1.4-1c1.8-1.4,2.9-3.2,2.7-5.2
			c-0.1-1-0.4-2-0.9-3c-0.5-1-1.2-2-1.9-2.9c-0.8-0.9-1.6-1.8-2.4-2.6c-0.9-0.8-1.8-1.6-2.7-2.4l-0.1,0c-0.2-0.2-0.2-0.5-0.1-0.7
			C387.8,355.2,388.1,355.2,388.3,355.3z"/>
		<path class="st1" d="M420,371c-3.7-12-10.7-15-17-17c-6.3-2,4.8-17.2,5.1-24.7c0.3-7.5,24.2,7.8,31.3-28.8L422.2,290
			c0,0-6.1,14.1-16.4,13.3c-10.3-0.8-34.2,12.3-34.8,33s-13.2,28.1-24.1,31c-10.9,2.9-14,15.6-19.6,15.6c-5.7,0-11.8-2.9-19.9,6.1
			c-8.1,9.1-21,1.2-24.9,12.9c-3.8,11.7,4.4,13,12.3,11.5c7.8-1.5,12-9.4,15.5-7.8s-9.4,16.4,10.3,12.1c19.6-4.3,0.6-15,11.4-17
			c10.7-2,5.7,5.7,16.3,4.6c10.6-1.1,12.6-1.7,11.5-12.3c-1.1-10.6,15.8-4,16.3,10.3c0.5,14.3,8.4,11.8,11.5,10.4s-8.4-6.1-3.4-13.8
			c5.1-7.7,4.4,7.4,12.9,7.8s-8.3-7.1,2-17.6s-4.3,14.4,21.3,14c16,0.8-9.4-0.6-8.1-19.3c0.3-7.5,11.5,4.8,23.2,2.9
			C440.9,387.7,423.7,382.9,420,371z M402.7,339.5c-0.5,1.2-1,2.4-1.5,3.5c-0.5-1-1-1.9-1.4-3c-1.6-4.1-2.7-8.4-3.5-12.7
			c-0.8-4.3-1.2-8.8-1.4-13.2c-0.1-2.2-0.2-4.3-0.2-6.5c1.9-0.8,3.7-1.5,5.3-1.9c0.2,1.1,0.3,2.2,0.5,3.2c0.7,4.4,1.7,8.8,3,13.1
			c0.7,2.4,1.6,4.8,2.5,7.1C406,331.8,404.4,335.8,402.7,339.5z M422.9,292.6l14.3,8.7c-1.5,7.3-3.8,12.3-6.3,15.8
			c-0.1-0.1-0.3-0.2-0.4-0.3c-3.5-2.7-6.6-5.8-9.5-9.1c-1.7-2-3.4-4.1-4.9-6.3C419.4,298.5,421.7,294.8,422.9,292.6z M414.8,302.3
			c1.6,2.2,3.2,4.3,4.9,6.3c2.9,3.4,6.2,6.6,9.8,9.3c0.1,0.1,0.3,0.2,0.4,0.3c-3.3,3.9-7.1,5.3-10.7,6c-2.3-3.2-4.2-6.6-5.8-10.1
			c-1.4-3-2.7-6.1-3.8-9.3C411.5,304.4,413.3,303.5,414.8,302.3z M405.6,305.2c0.8,0.1,1.6,0,2.4-0.1c1.1,3.3,2.4,6.5,3.9,9.7
			c1.6,3.3,3.4,6.6,5.6,9.7c-1.3,0.1-2.5,0.2-3.6,0.3c-2.7,0.1-5.7,0.3-7,2.1c-0.6-1.7-1.2-3.4-1.7-5.1c-1.3-4.2-2.2-8.6-3-12.9
			c-0.2-1.1-0.4-2.2-0.5-3.3C403.2,305.2,404.5,305.1,405.6,305.2z M420.4,382.5c-2.1-0.9-3.9-1.7-5.4-2c-0.9-0.2-1.7-0.1-2.4,0.2
			c0,0,0,0,0,0c0,0-4.5-3.7-5.7-2s-0.6,14.6,7.2,19c0,0,0,0,0,0c1.5,1.9,3.3,3.4,4.9,4.6c-1.4,0-2.8-0.1-4-0.3
			c-8.8-1.5-9.3-7.3-9.7-11.5c-0.2-2.1-0.4-4.4-2.5-4.7c-1.6-0.3-3,0.9-5.2,3.1c-5.4,5.5-4.3,10.5-2.6,14c-0.3-0.4-0.6-0.8-0.9-1.2
			c-1-1.6-1.4-3.7-1.3-5.6c0.2-2,0.8-4,1.3-6c0.3-1,0.6-2,1.1-2.9c0.2-0.5,0.5-0.9,0.7-1.5c0.1-0.5,0.2-1,0.3-1.6
			c-0.1,0.5-0.3,1-0.5,1.5c-0.2,0.5-0.5,0.9-0.8,1.3c-0.6,0.9-1,1.9-1.4,2.9c-0.4,1-0.7,2-1,3c-0.2,0.5-0.3,1-0.4,1.5
			c-0.1,0.5-0.3,1.1-0.3,1.6c-0.3,2.2,0,4.5,1.2,6.5c0.8,1.4,2,2.6,3.3,3.5c-2.5-0.6-4-3.2-5.2-5.6c-1.1-2.1-2.1-3.9-4-4.2
			c-1.1-0.2-2,0.3-2.8,0.9c0.1-0.5,0.1-1,0.2-1.5c0.2-1.7,0.5-3.4,0.7-5.1c-0.9,1.5-1.5,3.2-1.9,4.9c-0.2,1.1-0.4,2.2-0.5,3.3
			c-0.1,0.2-0.2,0.3-0.3,0.5c-4,6,0.2,10.6,2.5,13.1c0.1,0.1,0.3,0.3,0.4,0.5c-1.2,0.4-2.3,0.5-3.2,0.4c-3.4-0.6-4.3-5.6-4.4-9.6
			c-0.3-9.8-7.8-16.3-13-17.2c-2.1-0.4-4,0.1-5.3,1.3c-1,0.9-2,2.6-1.7,5.8c0.9,9.1,0.1,9.2-9.8,10.2c-1.3,0.1-2.4,0.1-3.3,0
			c-1.6-0.3-2.3-1-3.1-1.9c-1-1.1-2.2-2.4-4.8-2.9c-1.4-0.2-3.1-0.2-5.2,0.2c-2.2,0.4-3.7,1.3-4.5,2.6c-1.1,1.9-0.4,4,0.2,6
			c0.6,1.8,1.2,3.5,0.4,4.9c-0.9,1.5-3.5,2.8-7.6,3.7c-3.1,0.7-5.5,0.9-7,0.6c-0.9-0.1-1.4-0.4-1.7-0.8c-0.6-1,0.1-3.4,0.6-5.1
			c0.7-2.5,1.6-5.5-1-6.7c-0.3-0.1-0.7-0.2-1-0.3c-0.8-0.1-1.5,0-2.2,0.2l0,0c-4.2,0.2-2.3-1.3-4.9-2.7c-2.6-1.4-6.7,0.8-4.1,2.1
			c2.6,1.4,1.7,5.5,1.6,5.6c-1.8,1.2-3.7,2.3-6.1,2.8c-2.6,0.5-4.9,0.6-6.7,0.3c-1.8-0.3-3.1-1-3.7-2.1c-0.9-1.5-0.8-4.1,0.2-7.3
			c1.6-5,4.9-5.6,10.5-6.3c4.6-0.6,9.8-1.2,14-5.9c5.9-6.6,10.4-6.2,15.1-5.7c1.1,0.1,2.3,0.2,3.5,0.2c3.4,0,5.8-2.9,8.5-6.4
			c2.9-3.7,6.2-7.9,11.7-9.4c16.4-4.4,25-15.4,25.5-32.7c0.3-9.8,6-16.9,10.8-21.2c3.1-2.8,6.5-5,9.7-6.6c0,1.9,0,3.9,0.1,5.8
			c0.2,4.5,0.6,8.9,1.4,13.4c0.8,4.4,1.9,8.8,3.6,13c0.6,1.4,1.3,2.9,2.1,4.2c-1.2,3.4-1.9,6.3-0.9,8.4c0.5,1.1,1.5,2,2.8,2.4
			c6.1,1.9,12.4,4.8,15.8,15.8c1.5,4.9,5,8.6,8.4,11.4c-0.6-0.3-1.2-0.6-1.8-0.9c-2.4-1.2-4.7-2.3-7.1-3.5c-2.4-1.2-4.7-2.3-7-3.6
			c-2.3-1.2-4.6-2.5-6.9-3.9c1.9,1.8,4,3.5,6.2,5c2.2,1.5,4.5,2.8,6.8,4.1c3.3,1.8,6.8,3.5,10.3,4.9
			C424.8,384.4,422.5,383.4,420.4,382.5z"/>
		<path class="st1" d="M283,404.3c0,0-7.1,9.7-2.2,18.5c0.6,1.6,2.2-8.7,9.5-10.5S286.6,399.5,283,404.3z"/>
		<path class="st1" d="M354,403.4c0,0-0.3,8.4-6.9,11.1c-1,0.6,2.6-5.8-0.6-9.9C343.2,400.5,354.1,399.2,354,403.4z"/>
		<path class="st0" d="M348.9,411.1c3.1-2.5,3.3-7.1,3.3-7.1c0-0.2,0-0.3-0.1-0.4c-0.3-0.5-1.2-0.7-2.3-0.7c-1.1,0-2,0.4-2.2,0.8
			c0,0.1-0.1,0.2,0.1,0.5c0,0,0,0,0,0c0,0.1,0.1,0.1,0.1,0.2c0.1,0.2,0.3,0.3,0.4,0.5C349.5,407,349.2,409.5,348.9,411.1z"/>
		<path class="st1" d="M448,449.9c0,0-8.4-0.5-8.3-7.1s-5.1-9.4-10.3-6.4s-11.8,14.1,0.3,15.2c2.9-0.5,2.9,5.2,9.4,6.3
			C439.1,457.9,447.5,452.6,448,449.9z"/>
		<path class="st3" d="M438.7,455.9c-2.4-0.6-3.5-2.1-4.6-3.5c-0.9-1.2-1.8-2.4-3.5-2.7c-0.3-0.1-0.6-0.1-1,0
			c-0.3,0-0.6-0.1-0.9-0.1c-2.4-0.4-3.7-1.3-4-2.7c-0.5-2.8,2.7-7.3,5.5-8.8c1.4-0.8,2.7-1.1,3.9-0.9c2.3,0.4,3.6,2.5,3.6,5.6
			c-0.1,4.1,2.5,7.1,7,8.4C443.5,452.5,441.2,454.3,438.7,455.9z"/>
		<path class="st1" d="M430.8,436.1c0,0-11.6-3.2-18,4.6c-1.3,1.1,8.9-1.1,13.2,5.1C430.3,452,436.6,437.7,430.8,436.1z"/>
		<path class="st0" d="M416.5,439.5c5.8-4,13.8-1.9,13.9-1.8c0.3,0.1,0.5,0.2,0.6,0.4c0.6,0.7,0.6,2.5,0,4.2
			c-0.7,1.9-1.8,3.2-2.5,3.4c-0.1,0-0.4,0.1-0.9-0.5c0,0,0,0,0,0c-0.1-0.1-0.2-0.2-0.3-0.3c-0.2-0.3-0.5-0.6-0.7-0.9
			C423.8,440.6,419.5,439.8,416.5,439.5z"/>
		<path class="st3" d="M558.3,344.4c-1.1-1.7-2.7-3-4.6-3.8c-0.1,0-0.1,0-0.2-0.1c-0.3,0-0.6,0-0.8,0.2c-0.3,0.2-0.4,0.6-0.2,1
			c1.3,3.7,3.6,10.7,0.6,16.4c-1.8,3.5-5.4,6.1-10.6,7.6c-7.7,2.2-9.4,2.5-10.2,2.4c-0.5-0.1-0.8-0.4-0.9-0.8
			c-0.2-0.8,0.3-1.2,2.4-2.7c2.4-1.8,5-3.8,5.6-5.5c0.1-0.3,0-0.6-0.2-0.9c-0.1-0.2-0.3-0.3-0.6-0.3c-0.1,0-0.2,0-0.3,0
			c-0.5,0.1-1.2,0.2-1.9,0.3c-2.1,0.4-5.1,0.9-8.2,0.4c-2.4-0.4-4.7-1.4-6.7-3c-1.3-1-2.6-1.6-4-1.8c-3.5-0.6-7,1.1-10.5,2.7
			c-0.8,0.4-1.6,0.8-2.4,1.1c-2.2,0.9-4.2,1.6-6.1,1.3c-0.7-0.1-1.4-0.4-2-0.8c-5.1-3.3-4-13.3-3.3-20.6c0.2-2.1,0.4-3.9,0.4-5.2
			c0-1.8-0.9-5.2-1.8-8.7c-1.4-5.3-2.8-10.7-2.6-14.5c0.1-1.3,0.3-2.4,0.8-3.3c0.2-0.3,0.3-0.5,0.5-0.8c0.1-0.1,0.2-0.3,0.4-0.4
			c2.8-2.5,6.8-3.5,11.2-2.8c4.2,0.7,8.6,2.9,13,6.6c3.8,3.1,7.7,5,12,5.7c5.2,0.9,11,0,17.7-2.6c9.5-3.7,12.9-17.9,11.5-26.3
			c-0.5-3.1-2.7-5.6-4.6-7.9c-2.1-2.4-3.9-4.5-3.4-6.9c0.4-1.8,1.9-3.3,4.9-4.8c10.5-5.2,20.3-10.8,24.4-21.5c0.2-0.4,0-0.9-0.4-1.1
			c-0.1-0.1-0.2-0.1-0.3-0.1c-0.3-0.1-0.6,0.1-0.9,0.3c-3.7,4.4-12.5,14.6-22.6,12.9c-3.1-0.5-4.4-1.2-4.7-2.4
			c-0.4-1.7,1.6-3.1,6.1-6.1c7.1-4.7,17.7-11.8,18.2-23c0-0.4-0.2-0.7-0.6-0.9c-0.1,0-0.1-0.1-0.2-0.1c-0.3-0.1-0.6,0-0.8,0.3
			c-0.7,0.8-1.6,1.8-2.4,2.6c-5,5.7-13.5,15.3-24.5,15.8c-2.4,0.1-4.6,0-6.4-0.3c-3.8-0.6-6.2-2.2-7-4.6c-1.7-5.1,4.2-11.9,6-13.8
			c2.2-2.3,5.5-4.5,9.4-7c7.9-5.1,17.7-11.5,21.5-22.1c0.1-0.4,0-0.9-0.4-1.1c-0.1-0.1-0.2-0.1-0.4-0.1c-0.3,0-0.6,0-0.8,0.2
			l-0.3,0.3c-5.9,5.5-16.8,15.7-29.5,16c-1.3,0-2.6,0-3.7-0.2c-11.2-1.9-12.8-13.8-14.2-23.3c-0.6-4.6-1.2-8.9-2.7-11.4
			c-5.2-8.4-7.7-19.7-1.4-26c3.7-3.7,11.3-7,17.5-5.9c3.3,0.5,7.6,2.5,9.5,8.9c0.1,0.3,0.4,0.6,0.7,0.7c0.1,0,0.1,0,0.2,0
			c0.4,0,0.8-0.3,0.9-0.7c0.3-1.1,0.9-4.1,0-7.5c-1.5-5.6-6.4-9.3-14.1-10.5c-14.4-2.4-17,4.5-18.2,7.8c-0.6,1.7-1.1,2.4-2.1,2.2
			c-0.7-0.1-1.3-0.8-2.5-2.9c-1.4-2.6-0.8-5.9,1.9-9.6c6.1-8.6,21.6-17.4,28.6-16.3c0.4,0.1,0.9,0.2,1.2,0.3c3.6,1.5,6.1,4.4,8,6.7
			l0.6,0.7c0.1,0.2,0.3,0.3,0.6,0.3c0.2,0,0.5,0,0.7-0.1c0.4-0.3,0.5-0.8,0.3-1.2c-0.1-0.1-0.1-0.3-0.2-0.5c-0.4-1.3-0.1-3,1.1-5.3
			c0.6-1.1,1.5-2.4,2.7-2.2c1.1,0.2,1.8,1.3,2.9,3.5c1.6,3,4,7.5,8.9,8.4c0.6,0.1,1.2,0.1,1.9,0.1c0.4,0,0.8-0.3,0.9-0.7
			c0.1-0.4-0.1-0.8-0.4-1c-5.6-3.5-9.6-8.6-12-15c-1.7-4.6-5.9-6.2-9.2-6.8c-12.8-2.1-36.3,8.2-45.3,32.4c-8.3,22.2,1.7,35,9.1,44.4
			c3,3.9,5.4,6.9,5.6,9.7c0.1,2.6-0.6,6.6-1.5,11.3c-1.6,8.3-3.5,18.6-0.4,23c0.8,1.2,2,1.9,3.5,2.1c1.9,0.3,2,2.6,2.1,6.9
			c0.1,7.2,0.2,18,10.1,24.5c1.9,1.1,1.9,4.5,2,9.7c0.1,11.6,1.1,21.4,11.1,23.6c6.8,1.5,7.2,5,6.8,7c-1.1,5.8-11.3,12.1-17.9,11
			c-1.4-0.2-2.6-0.8-3.6-1.7c-1.1-1-2.1-2.1-3.2-3.2c-4.8-4.9-9.9-10.1-18.8-11.6c-3.2-0.5-6.8-0.6-10.7-0.1
			c-4.3,0.5-7.8,0.6-10.6,0.1c-3.7-0.6-6.1-2.1-7.6-4.1c-1.9-2.4-2.6-5.6-3.3-8.8c-0.2-0.9-0.4-1.8-0.7-2.8
			c-2.2-8.4-36.3-57.7-48.7-66.7c-0.1-0.1-0.3-0.1-0.4-0.2c-0.2,0-0.5,0-0.7,0.2l-64.5,46.1c-0.3,0.2-0.5,0.6-0.4,1
			c1.5,5.6,8,24.3,27.1,30.1c0.2,0.1,0.4,0.1,0.6,0.2c6.2,1.8,12.8,3.2,19.2,4.6c18.5,4.1,34.5,7.6,36.5,17.5
			c1.2,6,0.3,11.6-0.6,17.1c-1.1,6.4-2.1,12.4,0.3,18.7c1.9,5,0.6,9.1-0.5,12.8c-1.8,5.8-3.4,10.8,6.3,19.1
			c7.5,6.4,14.3,8.1,19.3,9.4c5.8,1.5,10,2.5,8.1,10.3c-1.7,6.9-4.3,9.9-7.1,13.1c-2.5,2.9-5.1,5.8-7.5,12c-2.6,7-7,11.9-10.8,16.3
			c-3.7,4.3-6.9,7.9-8.2,12.6c-1.2,4.7-5.6,6.6-10.3,8.6c-5.9,2.5-11.5,4.9-10.4,13.2c0.5,3.3,1.6,7.4,4.5,7.9
			c3.5,0.6,8-3.9,9.7-7.4c1.9-4,4.5-5,7-6c1.6-0.6,3.3-1.3,5-2.8c0.3-0.3,1.2-1.1,2.3-0.9c1.3,0.2,1.9,1.5,2.6,3.6
			c0.9,2.5,2,5.3,4.8,5.8c0.7,0.1,1.6,0.1,2.5-0.1c4.3-0.9,7.2-2.6,8.6-4.9c1.3-2.1,1.5-4.8,0.6-8.4c-1-3.9,0.1-5,2-6.5
			c1.4-1.1,3.3-2.6,4.9-7.1c0.8-2.3,1.5-4,2.9-3.7c0.9,0.1,1.3,1,1.9,2.4c1.1,2.3,2.3,4.5,4.6,4.9c0.8,0.1,1.8,0,2.8-0.3
			c7.1-2.2,6.9-7.5,6.7-11.8c-0.1-1.3-0.1-2.3,0-3.2c0.4-2.2,2.5-13.3,7.1-12.5c1,0.2,1.9,0.9,2.9,2.1c0.4,0.6,0.9,1.3,1.3,1.9
			l0.1,0.1c3.1,4.4,5.5,7.9,8.9,8.4c0.2,0,0.5,0.1,0.7,0.1c0.4,0,0.7-0.2,0.9-0.5s0.1-0.7-0.1-1l-0.4-0.4c-3-3.6-9.3-11.2-4.8-23.8
			c0-0.1,0-0.1,0-0.2c0.3-1.7,1-2.5,2-2.3c1,0.2,1.8,1.4,3.3,3.3c2.1,2.9,4.9,6.9,9,8.8c0.1,0,0.2,0.1,0.2,0.1
			c0.4,0.1,0.7-0.1,0.9-0.4c0.3-0.4,0.2-0.9-0.2-1.2c-4-3.3-9.1-8.6-7.5-15.4c0.8-3.2,2.4-4.6,4.8-4.2c1.8,0.3,3.9,1.7,6.3,3.2
			c3.1,2,6.7,4.3,10.5,5c1.5,0.3,2.9,0.2,4.3-0.1c0.4-0.1,0.7-0.4,0.7-0.8c0.1-0.4-0.1-0.7-0.4-1c-0.8-0.5-1.7-1-2.5-1.5
			c-5.7-3.3-14.4-8.2-14.4-16c0-2.3,0.4-3.6,1.2-4.4c0.6-0.5,1.3-0.6,2.2-0.5c1,0.2,2.1,0.7,3.5,1.3c1.6,0.8,3.5,1.6,5.6,2.1l0.1,0
			c0.4,0.1,0.8-0.1,1-0.5c0.2-0.4,0.1-0.9-0.2-1.1c-0.3-0.3-0.6-0.6-0.8-0.9c-0.7-1.1-0.9-2.6-0.6-4.5c0,0,0-0.1,0-0.1
			c0-1.8,1.8-2.2,4.7-2.7c4.8-0.8,12.9-2.1,16.1-13.8C560.8,353.2,560.6,348,558.3,344.4z M551.5,124l-0.2-0.1
			c-0.4-0.2-0.9-0.4-1.3-0.7c-0.1-0.1-0.2-0.1-0.4-0.1c-0.3-0.1-0.7,0.1-0.9,0.3c-0.3,0.4-0.3,0.9,0.1,1.3c0.7,0.7,1.3,1,1.9,1.1
			c0.2,0,0.4,0,0.5,0c0.4-0.1,0.7-0.4,0.8-0.8C552.1,124.6,551.9,124.2,551.5,124z"/>
		<path class="st4" d="M475.9,287.5c-11.5-1.5-20.1-22-28.9-18.5c-10.1,4-22.9-4.8-34.1-5.7c-11.2-0.9-16.4,13.3-23.3,15
			c-3.7,0.9-4.9,4.7-5.2,8c-19.1-5.8-25.6-24.5-27.1-30.1c-0.1-0.4,0-0.8,0.4-1l64.5-46.1c0.2-0.1,0.5-0.2,0.7-0.2
			c0.1,0,0.3,0.1,0.4,0.2c12.4,9,46.5,58.3,48.7,66.7c0.2,0.9,0.5,1.9,0.7,2.8C473.3,282,474,285.1,475.9,287.5z"/>
		<path class="st4" d="M504.6,358.6c-5.7,4.3-6.7,7.8-13.9,11.4c-7.2,3.5-6.3-2-10.1-7.4c-3.8-5.4-1.1,12.1-8.1,14.7
			c-7.1,2.6-6.3-13.3-7.1-20.1s9.5-17.3,14-21.3c4.4-4,0.3-18.9-2.1-21.2c-2.5-2.3-2-10.7,2.9-11.8c4.9-1.1,1.4,8.7,4.8,11.2
			c1.9,1.4,3.4-2,4.4-5.1c-0.2,3.9,1.2,9.3,2.6,14.5c0.9,3.6,1.8,6.9,1.8,8.7c0,1.3-0.2,3.1-0.4,5.2c-0.8,7.3-1.8,17.4,3.3,20.6
			c0.6,0.4,1.3,0.6,2,0.8c1.9,0.3,3.9-0.3,6.1-1.3L504.6,358.6z"/>
		<path class="st1" d="M457.8,277c1.3,3.4,3.4,6.8,6.3,9c1.5,1.2,3.2,2,5,2.3c0.9,0.2,1.9,0.4,2.9,0.6c0.9,0.3,1.9,0.5,2.8,1.3
			c0.4,0.4,0.6,1.1,0.5,1.7c-0.1,0.6-0.3,1-0.5,1.5c-0.5,0.9-1,1.7-1.5,2.5c-1,1.6-2.1,3.3-3.2,4.9c-1,1.6-2.1,3.2-3,4.9
			c-0.9,1.7-1.2,3.4-0.6,5c0.2,0.5,0,1-0.5,1.2s-1,0-1.2-0.5c0,0,0,0,0-0.1l0-0.1c-0.3-1.1-0.4-2.2-0.2-3.3c0.2-1.1,0.7-2,1.2-2.9
			c1-1.8,2.1-3.3,3.2-4.9c1.1-1.6,2.1-3.2,3.2-4.8c0.5-0.8,1.1-1.6,1.5-2.4l0.3-0.6c0-0.2,0.1-0.4,0.1-0.5c0-0.1,0-0.1,0-0.2
			c0,0,0-0.1,0-0.1c0-0.1,0-0.1-0.1-0.1c0,0,0-0.1-0.1-0.1c-0.4-0.4-1.3-0.7-2.1-0.9c-0.9-0.2-1.8-0.4-2.8-0.6
			c-2.1-0.4-4-1.3-5.6-2.5c-1.6-1.2-3-2.7-4.2-4.3c-1.2-1.6-2.2-3.3-3-5.2c-0.2-0.5,0-1,0.5-1.2C457,276.2,457.5,276.4,457.8,277
			C457.7,276.9,457.8,276.9,457.8,277L457.8,277z"/>
		<path class="st1" d="M425.4,283.6c1.2,0,2.4,0.2,3.5,0.4c0.6,0.1,1.1,0.3,1.7,0.4c0.6,0.2,1.1,0.4,1.7,0.6c2.2,0.8,4.3,2,6,3.6
			c0.5,0.4,0.9,0.8,1.3,1.2c0.4,0.4,0.8,0.8,1.2,1.3l1.1,1.4c0.3,0.5,0.6,1,0.9,1.5l0.4,0.8c0.1,0.3,0.2,0.5,0.4,0.8l0.7,1.6
			c0.4,1.1,0.7,2.2,1,3.3c0.1,0.4-0.1,0.8-0.5,0.9c-0.4,0.1-0.7-0.1-0.9-0.4l-0.1-0.1c-0.4-1-0.7-2.1-1.2-3.1l-0.7-1.5
			c-0.1-0.2-0.2-0.5-0.4-0.7l-0.4-0.7c-1-1.9-2.5-3.5-4-4.9c-0.4-0.3-0.8-0.7-1.2-1l-1.3-0.9l-1.4-0.8l-1.5-0.7
			c-0.5-0.2-1-0.4-1.5-0.6c-0.5-0.1-1-0.3-1.6-0.4c-1-0.3-2.1-0.5-3.2-0.6l-0.1,0c-0.4,0-0.7-0.4-0.7-0.8
			C424.7,283.9,425.1,283.6,425.4,283.6z"/>
		<path class="st1" d="M503.4,364.9c1.7-0.7,3.4-1.2,5.1-1.4c1.8-0.3,3.6-0.3,5.4,0.4c0.9,0.4,1.7,1,2.3,1.8c0.6,0.8,1,1.7,1.1,2.6
			c0.4,1.8,0.1,3.6-0.1,5.3c-0.2,1.7-0.4,3.4-0.8,5.2c-0.4,1.7-0.9,3.4-1.9,5c-0.9,1.6-2.3,2.9-3.9,3.8c-1.6,0.8-3.4,1.3-5.1,1.7
			c-0.4,0.1-0.7-0.2-0.8-0.5c-0.1-0.3,0.1-0.7,0.5-0.8l0.1,0c1.6-0.5,3.2-1,4.6-1.8c1.4-0.8,2.4-1.9,3.1-3.2
			c0.8-1.3,1.2-2.9,1.6-4.5c0.4-1.6,0.6-3.3,0.8-4.9c0.2-1.7,0.4-3.3,0.1-4.8c-0.3-1.5-1-2.6-2.3-3.2c-1.3-0.6-3-0.6-4.6-0.4
			c-1.6,0.2-3.3,0.6-4.8,1.1l-0.1,0c-0.3,0.1-0.7-0.1-0.8-0.4C502.9,365.4,503.1,365,503.4,364.9z"/>
		<path class="st1" d="M496.5,373.4c0,0-0.1,0.2-0.2,0.3c-0.1,0.2-0.2,0.3-0.2,0.5c-0.1,0.4-0.2,0.7-0.3,1.2c-0.1,0.8-0.1,1.6,0,2.5
			c0.1,0.8,0.2,1.7,0.4,2.5c0.2,0.8,0.4,1.7,0.7,2.5l0,0c0.2,0.5-0.1,1-0.6,1.2c-0.5,0.2-1-0.1-1.2-0.6c0,0,0,0,0,0
			c-0.3-0.9-0.5-1.8-0.7-2.7c-0.2-0.9-0.3-1.8-0.4-2.8c-0.1-0.9-0.1-1.9,0-2.9c0.1-0.5,0.2-1,0.3-1.5c0.1-0.2,0.2-0.5,0.3-0.7
			c0.1-0.3,0.2-0.5,0.5-0.8c0.4-0.4,0.9-0.4,1.3,0S496.9,373,496.5,373.4z"/>
		<path class="st1" d="M539.5,263.2c0,0-0.1,0.2-0.2,0.3c-0.1,0.2-0.2,0.3-0.2,0.5c-0.1,0.4-0.2,0.7-0.3,1.2c-0.1,0.8-0.1,1.6,0,2.5
			c0.1,0.8,0.2,1.7,0.4,2.5c0.2,0.8,0.4,1.7,0.7,2.5l0,0c0.2,0.5-0.1,1-0.6,1.2c-0.5,0.2-1-0.1-1.2-0.6c0,0,0,0,0,0
			c-0.3-0.9-0.5-1.8-0.7-2.7c-0.2-0.9-0.3-1.8-0.4-2.8c-0.1-0.9-0.1-1.9,0-2.9c0.1-0.5,0.2-1,0.3-1.5c0.1-0.2,0.2-0.5,0.3-0.7
			c0.1-0.3,0.2-0.5,0.5-0.8c0.4-0.4,0.9-0.4,1.3,0C539.8,262.2,539.8,262.8,539.5,263.2z"/>
		<path class="st1" d="M466.1,358.1c0.1,2,0.3,4,0.6,6c0.3,2,0.6,4,1.1,5.9c0.5,1.9,1.1,3.9,2.3,5.3c0.6,0.7,1.2,1.1,1.9,1
			c0.7-0.1,1.4-0.7,2-1.4l0,0c0.4-0.4,0.9-0.4,1.3,0c0.4,0.4,0.4,0.9,0,1.3c0,0,0,0,0,0c-0.8,0.8-1.7,1.6-3.2,1.8
			c-0.7,0.1-1.5-0.1-2-0.4c-0.6-0.3-1-0.8-1.4-1.3c-0.7-0.9-1.2-1.9-1.6-2.9c-0.4-1-0.7-2-1-3c-0.5-2-0.9-4.1-1.2-6.1
			c-0.3-2.1-0.5-4.1-0.7-6.2c0-0.5,0.3-1,0.9-1C465.6,357.2,466.1,357.6,466.1,358.1C466.1,358.1,466.1,358.1,466.1,358.1z"/>
		<g>
			<path class="st1" d="M458.9,367.5c-0.1,0-0.1,0-0.2-0.1c-2.5-1-3.9-2.4-4.2-4.2c-0.5-3.4,3.4-6.7,3.6-6.9c0.4-0.3,1-0.3,1.3,0.1
				c0.3,0.4,0.3,1-0.1,1.3c-0.9,0.8-3.3,3.2-3,5.1c0.2,1.1,1.2,2,3,2.8c0.5,0.2,0.7,0.7,0.5,1.2
				C459.7,367.3,459.3,367.6,458.9,367.5z"/>
		</g>
		<path class="st1" d="M504.8,398.3c-2.1,2.8-4.3,5.4-6.5,8.1c-2.2,2.7-4.4,5.3-6.8,7.9c-2.3,2.6-4.6,5.1-7.1,7.5
			c-0.6,0.6-1.2,1.2-1.9,1.8c-0.7,0.6-1.3,1.2-2,1.7c-0.7,0.5-1.3,1.1-2,1.6l-2.1,1.5c-0.3,0.2-0.7,0.1-0.9-0.1
			c-0.2-0.3-0.1-0.7,0.1-0.9c0,0,0,0,0,0l0,0c2.8-1.8,5.3-4.1,7.8-6.5c2.4-2.4,4.8-4.9,7-7.5c2.3-2.6,4.4-5.2,6.5-7.9
			c2.1-2.7,4.2-5.4,6.2-8.2l0,0c0.3-0.4,0.9-0.5,1.3-0.2C505,397.2,505.1,397.8,504.8,398.3C504.8,398.2,504.8,398.2,504.8,398.3z"
			/>
		<path class="st1" d="M551.2,338.9c-2.8-0.5,11.8,19.9-9,25.9c-20.9,6-2.8-0.5-1.8-6c0.9-5.5-9.1,3.2-18.3-4
			c-9.2-7.2-19,6.3-25,2.5s-2.5-19.3-2.5-25s-7.5-23-3.1-27c4.4-4,13-4.4,23,3.8c10,8.3,20.6,7.2,30.7,3.2
			c10.1-4,13.5-18.6,12.1-27.3s-14.9-12.9-3.5-18.6c11.4-5.7,22.9-12.3,26.1-25.9c1.7-10.1-10.4,17.2-26.1,14.6
			c-15.6-2.6,20.6-9.8,20.4-31.6c-0.3-9.5-11.4,17-29.5,17.8c-18.1,0.8-13.5-9.8-6.6-17.2c6.9-7.4,27.9-14.3,31.9-32.5
			c2.5-9.1-13.2,16.7-33.1,17.2s-14.6-26.1-19.8-34.5s-7.2-19.2-1.5-24.9c5.7-5.7,22.7-11.4,25.8,4.3c1.5,7.8,12.3-16.9-11.7-20.9
			c-23.9-4-17,17-22.1,7.7c-5.1-9.4,22.5-27.5,30.5-24.2s10,14,15.5,9.2c0.6-3.7-7.4-1.2-3.2-9.1s3.4,13.8,19.2,9.8
			c5.8-0.9-8.3-1.4-14.1-17.5s-44.3-6.4-56.3,25.6s14.1,45.9,14.6,54.5c0.5,8.6-9.7,35.3,2.3,37.3c3.7,0.6-3.5,21.2,11.8,31.3
			c4.3,2.6-4,29.6,13.3,33.4c17.3,3.8-6.4,21.6-13.8,14.7c-7.4-6.9-14.1-17.5-33.4-15c-19.3,2.5-18.9-6-21.2-14.9
			c-2.3-8.9-39-61.4-50.2-68L356,255.3c0,0,5.2,25.5,28.7,32.2c23.5,6.7,52.5,8.7,55.1,21.5c2.6,12.7-4.9,23.8-0.3,35.9
			s-10.6,18.1,6,32.2c16.6,14.1,30.2,6,27.2,18.7c-3.1,12.7-9.5,11.7-14.6,25s-16.4,19-19,29c-2.6,10-22.9,6.6-20.7,22.1
			c2.1,15.5,13,6.9,16,0.8s7.4-4.4,11.8-8.4s2,10.7,11.8,8.6s11.7-7.5,10-14.4c-1.7-6.9,3.4-3.2,6.9-13s1.7,6.9,11.7,3.8
			c10-3.1,6.7-12.1,7.4-15.8s3.7-16.4,8.3-10c4.6,6.4,7.5,11.7,13.3,10.7c5.8-0.9-12-7.7-5.1-26.4c1.2-7.4,5.7,11.4,17.9,11.5
			c6.6,0.2-13-6.9-10.1-18.7c2.9-11.8,14.4,10,27.8,3.7c2.3-2.5-18.6-7.8-18.6-19.2s9.4,6.3,23.2-2.8c3.5-4.1-13.2,5.4-11.4-5.7
			c-0.3-3.8,15.8,1.7,20.7-16.4C564.8,342.1,553.9,339.3,551.2,338.9z M558.1,359.7c-3,11.1-10.4,12.4-15.3,13.2
			c-2.6,0.4-5.5,0.9-5.4,3.6c-0.3,2-0.1,3.6,0.7,4.9c-0.6-0.3-1.2-0.7-1.7-1.2c-0.7-0.5-1.2-1.2-1.7-1.9c-0.3-0.4-0.5-0.7-0.7-1.1
			l-0.7-1.2l0.4,1.3c0.2,0.4,0.3,0.8,0.5,1.3c0.4,0.8,0.8,1.6,1.4,2.4c0.2,0.3,0.5,0.5,0.7,0.8c-0.9-0.4-1.7-0.7-2.5-1.1
			c-1.4-0.6-2.6-1.2-3.7-1.4c-1.4-0.2-2.4,0.2-2.9,0.7c-1.1,0.9-1.5,2.4-1.5,5.1c0,7.6,7.5,12.5,13.3,15.9c-0.3-0.1-0.7-0.2-1-0.3
			c-2-0.7-3.9-1.6-5.8-2.7c-0.9-0.5-1.8-1.1-2.7-1.7c-0.4-0.3-0.9-0.6-1.3-1c-0.4-0.3-0.8-0.7-1.2-1c-0.4-0.4-0.8-0.7-1.2-1.1
			l-1.1-1.2c-0.4-0.4-0.7-0.8-1.1-1.2l-1-1.3c1.1,1.9,2.4,3.7,3.9,5.3c0.4,0.4,0.7,0.8,1.2,1.2c0.4,0.4,0.8,0.8,1.2,1.1
			c0.9,0.7,1.7,1.4,2.6,2c1.8,1.3,3.8,2.4,5.8,3.3c0.9,0.4,1.9,0.8,2.8,1.1c-0.3,0-0.6-0.1-1-0.1c-3.6-0.6-7.1-2.8-10.1-4.8
			c-2.5-1.6-4.7-3-6.7-3.4c-2-0.3-4.7,0.2-5.8,4.9c-1.8,7.3,3.6,12.8,7.8,16.3c-3.9-1.8-6.7-5.7-8.6-8.5c-1.5-2.2-2.5-3.5-3.9-3.7
			c-0.9-0.2-2.5,0-3.1,3.1c-0.7,2-1.2,3.8-1.4,5.5c-0.2-0.5-0.3-1.1-0.4-1.6c-0.3-1.5-0.4-3-0.4-4.6c-0.2,0.7-0.4,1.5-0.5,2.3
			c-0.1,0.8,0,1.6,0,2.4c0.1,0.8,0.3,1.6,0.5,2.4c0.2,0.4,0.3,0.9,0.6,1.3c-0.5,8.5,4.1,14,6.6,17c0.1,0.1,0.2,0.3,0.4,0.4
			c-0.2,0-0.4,0-0.6-0.1c-3-0.5-5.3-3.8-8.3-8c-0.4-0.6-0.9-1.3-1.4-2c-1.1-1.5-2.2-2.3-3.4-2.5c-5.4-0.9-7.6,9.9-8.2,13.3
			c-0.2,1-0.1,2.1-0.1,3.4c0.2,4.2,0.4,8.9-6,10.9c-0.8,0.3-1.6,0.3-2.2,0.3c0.1-0.1,0.3-0.3,0.4-0.4c0.5-0.6,0.9-1.2,1.3-1.9
			c0.7-1.3,1.2-2.7,1.5-4.1c0.3-1.4,0.4-2.9,0.4-4.3c0-0.7-0.1-1.4-0.1-2.1c-0.1-0.7-0.2-1.4-0.3-2.1c-0.1,0.7-0.1,1.4-0.2,2.1
			l-0.2,2.1c-0.2,1.4-0.4,2.7-0.9,4c-0.4,1.3-0.9,2.5-1.6,3.7c-0.3,0.6-0.7,1.1-1.1,1.6c-0.2,0.3-0.6,0.6-0.8,0.8
			c-1-0.8-1.7-2.1-2.4-3.7c-0.7-1.4-1.2-2.7-2.6-2.9c-2.2-0.4-3.2,2.2-3.9,4.3c-1.5,4.2-3.2,5.6-4.6,6.6c-2,1.6-3.4,3.1-2.3,7.5
			c0.8,3.3,0.6,5.8-0.5,7.7c-1.3,2.1-4,3.6-8,4.5c-0.8,0.2-1.6,0.2-2.2,0.1c-2.1-0.4-3-2.4-4.1-5.2c0-0.1-0.1-0.2-0.1-0.3l0,0
			c-0.4-2.8,3.3-9.1,2.5-10.1c-0.8-1.1-3.7,5.1-3.5,4.1s-3.1-4.3-3.4-2.5c-0.3,1.8-1.2,5-1.2,5l0,0c-0.3,0.2-0.6,0.4-0.7,0.5
			c-1,0.9-2,1.4-3,1.9c-2,0.7-7.5-1-6.8,0c0.8,1.1-1.2,4.8-1.2,4.8l0,0c-0.5,0.6-1,1.4-1.4,2.3c-1.7,3.5-5.9,7.3-8.7,6.9
			c0,0,0,0,0,0c-2.5-0.4-3.4-4.6-3.7-7.1c-1-7.5,4-9.7,9.8-12.2c4.7-2,9.5-4.1,10.8-9.2c1.2-4.5,4.3-8.1,8-12.2
			c3.9-4.4,8.3-9.5,11-16.6c2.3-6,4.8-8.9,7.3-11.7c2.9-3.3,5.6-6.4,7.3-13.5c2.1-8.6-3-9.9-8.8-11.4c-4.9-1.2-11.7-2.9-19-9.2
			c-9.2-7.8-7.8-12.4-6-18.1c1.2-3.8,2.5-8.1,0.5-13.4c-2.3-6.1-1.3-12-0.3-18.2c0.9-5.5,1.9-11.2,0.6-17.4
			c-2.2-10.5-18.4-14.1-37.3-18.3c-6.4-1.4-13-2.9-19.1-4.6c-19.3-5.6-25.7-24.7-27.1-29.6l64.5-46.1c12,8.7,46.2,58,48.3,66.2
			c0.2,0.9,0.5,1.9,0.7,2.8c1.4,6,2.7,12.1,11.7,13.6c2.9,0.5,6.5,0.4,10.9-0.1c3.8-0.5,7.3-0.5,10.4,0.1
			c8.7,1.4,13.6,6.5,18.3,11.3c1.1,1.1,2.1,2.2,3.2,3.2c1.1,1,2.5,1.7,4.1,1.9c7.1,1.2,17.7-5.4,18.9-11.8c0.4-1.9,0.3-6.4-7.5-8.1
			c-9.4-2.1-10.2-11.5-10.4-22.7c0-3-0.1-5.5-0.5-7.3c0.1-0.5,0.1-1,0.2-1.6c0.1-1.2,0.3-2.4,0.6-3.5c0.2-1.2,0.6-2.3,1.1-3.4
			c0.5-1.1,1.1-2.1,2.1-2.9c-1.2,0.4-2.2,1.3-3,2.4c-0.8,1.1-1.3,2.3-1.6,3.5c-0.3,0.9-0.5,1.9-0.6,2.8c-0.2-0.2-0.4-0.4-0.7-0.6
			c-9.4-6.2-9.5-16.7-9.6-23.7c-0.1-4.3-0.1-7.4-2.8-7.8c-1.3-0.2-2.2-0.8-2.8-1.7c-2.9-4.1-1-14.2,0.6-22.3
			c0.9-4.7,1.7-8.8,1.5-11.5c-0.2-3.1-2.6-6.2-5.7-10.2c-7.2-9.2-17.1-21.8-8.9-43.5c8.9-23.8,31.8-33.9,44.3-31.8
			c3,0.5,7,2,8.5,6.2c3.2,8.7,8.6,13.1,12.3,15.5c-0.6,0-1.2,0-1.7-0.1c-4.5-0.7-6.6-4.9-8.2-7.9c-1.1-2.2-2-3.7-3.6-4
			c-0.2,0-0.5,0-0.7,0c-0.1-0.3-0.3-0.7-0.5-0.9c-0.4-0.6-1-1.1-1.6-1.4c-1.2-0.7-2.4-1.1-3.6-1.3c-1.2-0.2-2.5-0.2-3.7-0.2
			c-0.6,0-1.2,0-1.8,0.1l-1.8,0.2c1.2,0.1,2.4,0.1,3.6,0.3c1.2,0.1,2.3,0.4,3.4,0.7c1.1,0.4,2.1,0.8,2.9,1.5
			c0.4,0.3,0.7,0.7,0.9,1.1c0.1,0.2,0.2,0.4,0.2,0.6c0,0.1,0,0.2,0,0.3c-0.6,0.6-1,1.3-1.2,1.7c-0.8,1.4-1.2,2.7-1.3,3.8
			c-0.3-0.6-0.5-1.2-0.7-1.8c-0.2-0.5-0.4-1.1-0.5-1.6c-0.2-0.6-0.3-1.1-0.6-1.7c-0.1,0.6-0.1,1.2-0.2,1.8c0,0.6,0,1.2,0.1,1.8
			c0,0.6,0.2,1.2,0.3,1.8c0,0.1,0.1,0.2,0.1,0.3c-1.8-2-4-4.1-7-5.3c-0.4-0.2-0.9-0.3-1.4-0.4c-7.4-1.2-23.1,7.6-29.5,16.7
			c-3.6,5.1-3,8.6-1.9,10.6c1.1,2.1,1.9,3.2,3.1,3.4c0,0,0,0,0,0c1.9,0.3,2.6-1.6,3.1-2.8c1.2-3.3,3.6-9.5,17.2-7.2
			c7.3,1.2,11.9,4.6,13.4,9.9c0.3,1.2,0.5,2.4,0.4,3.5c0-0.2-0.1-0.3-0.1-0.5c-0.5-1.6-1.3-3.1-2.4-4.5c-0.5-0.7-1.2-1.3-1.8-1.8
			c-0.7-0.5-1.3-1-2.1-1.4c-0.4-0.2-0.7-0.4-1.1-0.5l-1.2-0.4c-0.4-0.1-0.8-0.2-1.2-0.3c-0.4-0.1-0.8-0.1-1.2-0.2
			c1.5,0.7,2.9,1.4,4,2.4c0.6,0.4,1.1,1,1.7,1.5c0.5,0.6,1,1.1,1.4,1.8c0.6,0.9,1.1,1.9,1.5,2.9c-2.3-3.4-5.5-4.7-8.1-5.1
			c-6.5-1.1-14.4,2.3-18.3,6.2c-6.6,6.6-4.1,18.4,1.3,27.2c1.4,2.3,2,6.5,2.6,11c1.3,9.3,2.8,20.7,12.9,23.7
			c-0.7,0.4-1.4,0.8-2.1,1.3c-1.3,0.9-2.5,2-3.7,3.1c-1.1,1.2-2.1,2.5-2.8,3.9c-0.8,1.4-1.3,2.9-1.5,4.5c0.4-0.7,0.6-1.4,1-2.1
			c0.2-0.3,0.4-0.7,0.6-1l0.7-0.9c0.9-1.2,1.9-2.4,3.1-3.4c1.1-1,2.3-1.9,3.6-2.8c1.2-0.8,2.4-1.5,3.7-2.1c1.1,0.2,2.3,0.2,3.5,0.2
			c13.1-0.3,24.2-10.7,30.1-16.3c0.1-0.1,0.2-0.2,0.3-0.3c-3.6,10.3-13.2,16.5-21.1,21.6c-3.9,2.5-7.3,4.7-9.5,7.1
			c-2.5,2.6-8.1,9.4-6.2,14.8c0.9,2.8,3.5,4.5,7.7,5.2c1.8,0.3,4.1,0.4,6.6,0.3c9.2-0.4,16.6-6.9,21.8-12.4
			c-0.2,0.3-0.4,0.5-0.6,0.8c-2.2,2.7-4.6,5.2-7.3,7.4c-1.3,1.2-2.7,2.1-4.1,3.2c-1.5,0.9-2.9,1.9-4.4,2.7c-3,1.8-6.3,3-9.6,4.2
			c0.9-0.2,1.7-0.4,2.6-0.6c0.9-0.2,1.7-0.4,2.6-0.7l2.5-0.9c0.8-0.3,1.6-0.7,2.4-1.1c1.7-0.7,3.2-1.7,4.7-2.5c1.5-1,3-2,4.3-3.1
			c2.8-2.3,5.3-4.8,7.5-7.6c1.9-2.5,3.7-5.1,5-8c-0.5,10.7-10.9,17.6-17.8,22.2c-4.5,3-7,4.7-6.5,7.1c0.4,2.1,2.9,2.7,5.4,3.2
			c10.1,1.7,18.6-7.5,23.4-13.2c-4,10.3-13.6,15.9-24,21.1c-2,1-3.4,2-4.3,3.1c-1,0.5-1.8,1.3-2.5,2.1c-0.8,1-1.4,2.1-1.9,3.2
			c-0.5,1.1-0.7,2.3-0.9,3.5c-0.1,0.6-0.1,1.2-0.1,1.8c0,0.6,0.1,1.2,0.1,1.8c0.2-0.6,0.3-1.1,0.5-1.7c0.2-0.6,0.3-1.1,0.5-1.6
			c0.4-1.1,0.8-2.1,1.3-3.1c0.5-0.9,1-1.8,1.6-2.6c0,2.4,1.8,4.4,3.7,6.6c1.8,2.2,3.9,4.6,4.4,7.4c1.3,8.1-1.9,21.7-11,25.3
			c-6.5,2.6-12.2,3.4-17.2,2.6c-4.2-0.7-7.9-2.5-11.6-5.5c-4.5-3.8-9.1-6.1-13.5-6.8c-4.7-0.8-8.9,0.3-12,3
			c-3.8,3.4-1.5,11.8,0.6,19.9c0.9,3.5,1.8,6.8,1.8,8.5c0,1.2-0.2,3-0.4,5.1c-0.8,7.6-1.8,17.9,3.7,21.5c0.7,0.5,1.5,0.8,2.3,0.9
			c2.9,0.5,5.8-0.9,9-2.5c3.3-1.6,6.7-3.2,9.9-2.7c1.3,0.2,2.5,0.8,3.6,1.7c2.1,1.7,4.5,2.7,7.1,3.2c3.1,0.5,6,0.1,8.1-0.3
			c-0.4,0.3-0.7,0.5-1.1,0.7c-1.2,0.7-2.4,1.4-3.7,1.9c-1.3,0.5-2.7,0.8-4,0.9c-1.4,0.1-2.8-0.1-4.2-0.5c1.3,0.6,2.7,1,4.2,1.1
			c1.5,0.1,2.9,0,4.4-0.4c1.4-0.4,2.8-0.9,4.1-1.6c0.3-0.2,0.6-0.3,0.9-0.5c-1.2,1.1-2.8,2.3-3.8,3c-2.1,1.5-3.1,2.2-2.8,3.7
			c0.2,0.8,0.8,1.4,1.7,1.5c0.9,0.2,2.3,0,10.6-2.4c5.5-1.6,9.2-4.3,11.2-8c3.2-6.1,0.8-13.2-0.5-17.2c1.5,0.6,3.1,1.7,4.2,3.5
			C559.7,348.2,559.9,353.2,558.1,359.7z"/>
		<path class="st1" d="M502.1,146.7c0,0-3,4.2-1.2,7.4c1.8,3.1,2.7,2.3,3.1-0.4C504.4,150.9,505.7,143.5,502.1,146.7z"/>
		<path class="st1" d="M320.7,88.6c0,0-2.1-11.8-11.9-14.3c-1.5-0.7,4.9,7.6,1.1,14.1C306.1,94.9,321.8,94.5,320.7,88.6z"/>
		<path class="st0" d="M311.4,77.1c6.1,3.5,7.7,11.6,7.7,11.7c0,0.3,0,0.5-0.1,0.7c-0.4,0.9-1.9,1.6-3.8,1.8c-2,0.2-3.7-0.2-4.1-0.8
			c-0.1-0.1-0.2-0.3,0.1-1c0,0,0,0,0,0c0.1-0.1,0.1-0.2,0.2-0.4c0.2-0.3,0.4-0.7,0.5-1C313.6,84.2,312.5,80,311.4,77.1z"/>
		<path class="st3" d="M354.5,180.2l-37,36.6c-0.1,0.1-0.2,0.2-0.3,0.2c-6.9,2.5-15.2,2.6-21.1,2.1c-1.5-0.1-2.8-0.2-4-0.4
			c0,0,0,0,0,0c-1.2-0.1-2.2-0.3-2.9-0.4c-2.4-0.4-4.7-0.9-6.4-1.5c-0.4-0.1-0.7-0.6-0.6-1c0.1-0.4,0.4-0.8,0.9-0.8
			c0.4,0,0.9,0,1.5-0.1c9.6-0.2,15-5.2,18-10.4l0,0c0.7-1.2,1.2-2.4,1.7-3.6c1.3-3.3,1.7-6.4,1.9-7.9c0.1-0.6,0.1-1,0.1-1
			c0-0.3-0.2-0.7-0.4-0.8c-0.1-0.1-0.2-0.1-0.3-0.1c-0.2,0-0.4,0-0.6,0.1c-0.4,0.2-0.8,0.4-1.1,0.6c0,0,0,0,0,0
			c-13,7-19.6,7-21.8,6.6c-0.2,0-0.4-0.1-0.6-0.1c-0.5-0.1-0.8-0.5-0.7-1c0-0.5,0.4-0.8,0.8-0.9c3.6-0.3,10.6-5.9,15.2-11.3
			c1.3-1.5,2.4-3,3.2-4.3c0.8-1.4,1.3-2.6,1.4-3.6c0.2-1.6-0.7-2.7-2.4-3c-1.3-0.2-3,0-5.3,0.8c-5.9,1.8-10.8,4.9-14.5,9.2
			c-0.2,0.2-0.6,0.4-0.9,0.3c-0.1,0-0.2-0.1-0.3-0.1c-0.4-0.2-0.6-0.7-0.4-1.1c2.2-6.9,8.7-10.6,13.1-13c3-1.7,4.4-2.5,4.2-3.9
			c-0.2-1.3-1.8-1.9-4.6-2.6c-0.9-0.2-1.9-0.5-2.7-0.8c-1.7-0.6-3.2-1.2-4.4-1.9c-0.4-0.3-0.6-0.8-0.3-1.2c0.2-0.4,0.6-0.6,1-0.5
			c0,0,0.1,0,0.1,0c0.6,0.2,1.3,0.4,1.9,0.5c3,0.5,7.1,0.1,9.3-2.4c1.1-1.2,2.1-3.5,0.9-7.4c-0.8-2.8-1.8-4-3-4.2
			c-1.2-0.2-2.1,0.6-3.1,1.4c-1,0.8-2.1,1.7-3.2,1.5c-1-0.2-2-1.2-2.6-2c-3.1-3.7-0.8-6.3,2.8-9.6c2.4-2.2,3.9-3.8,2.6-5.6
			c-0.7-1-0.5-2.4-0.4-4c0.3-2.8,0.7-6.3-3.7-8.3c-0.7-0.3-1.4-0.5-2.1-0.7c-2.3-0.4-4.6,0.3-6.8,0.9c-2.4,0.7-4.6,1.3-7,0.9
			c-1.3-0.2-2.5-0.7-3.7-1.5c-2.7-1.8-4.2-4-4.6-6.7c-0.5-3.5,1.1-7,2.8-9.1c0-0.1,0.1-0.1,0.2-0.2c2.6-1.9,5.4-2.6,8.5-2.1
			c2.5,0.4,4.9,1.6,6.8,2.5c1.4,0.7,2.6,1.3,3.7,1.5c0.9,0.1,1.6,0,2.1-0.6c0.9-0.9,1.1-2.6,0.5-6c-1.2-7.4-3-9.2-5.3-9.6
			c-0.3-0.1-0.7-0.1-1-0.1l-0.2,0c-0.2,0-0.4,0-0.6-0.1c-0.8-0.1-1.5-0.6-2.2-2.4c-0.8-2.2-0.1-4.8,1.8-7.1
			c2.4-2.9,7.1-5.6,12.1-4.7c1,0.2,2,0.5,2.9,0.9c6.3,2.9,8.3,12.1,9.4,17c0.1,0.4,0.4,0.7,0.8,0.7c0,0,0.1,0,0.1,0
			c0.4,0,0.8-0.3,0.9-0.7c1.2-4.5,7.9-5.8,13.9-4.8c4,0.7,4.2,4.4,4,9.5c-0.1,2-0.1,3.8,0.4,5c0.3,0.8,0.8,2.3-0.1,4.3
			c-0.8,1.8-3,4.3-8.9,6.1c-0.9,0.3-1.7,0.5-2.7,0.7c-0.3,0.1-0.5,0.2-0.6,0.5c-0.1,0.2-0.2,0.5-0.1,0.8c2.9,8.4,5.1,14.2,6.7,17.2
			c0.5,0.9,0.9,1.4,1.1,1.7c1.5,1.6,5.5,6.1,9.9,11.2c0.4,0.5,0.9,1,1.3,1.6c1.5,1.8,3,3.6,4.5,5.4c0.5,0.6,1,1.2,1.5,1.8
			c1.4,1.7,2.7,3.4,3.8,4.8c0.4,0.5,0.8,1,1.1,1.5c0.1,0.1,0.2,0.3,0.3,0.4c0.8,1.2,1.8,2.5,2.8,3.8c0.4,0.6,0.9,1.2,1.3,1.8
			c3.6,4.8,7.5,10,10.1,13.2C354.9,179.3,354.8,179.8,354.5,180.2z"/>
		<path class="st1" d="M254.3,295.6c0,0-8.4-0.5-8.3-7.1c0.2-6.6-5.1-9.4-10.3-6.4s-11.8,14.1,0.3,15.2c2.9-0.5,2.9,5.2,9.4,6.3
			C245.4,303.5,253.8,298.3,254.3,295.6z"/>
		<path class="st3" d="M245,301.6c-2.4-0.6-3.5-2.1-4.6-3.5c-0.9-1.2-1.8-2.4-3.5-2.7c-0.3-0.1-0.6-0.1-1,0c-0.3,0-0.6-0.1-0.9-0.1
			c-2.4-0.4-3.7-1.3-4-2.7c-0.5-2.8,2.7-7.3,5.5-8.8c1.4-0.8,2.7-1.1,3.9-0.9c2.3,0.4,3.6,2.5,3.6,5.6c-0.1,4.1,2.5,7.1,7,8.4
			C249.8,298.2,247.5,300,245,301.6z"/>
		<path class="st4" d="M353.8,179.5l-37,36.6c-10.3,3.7-23.6,1.9-27.5,1.3c-2.7-0.5-4.8-1-6.3-1.4c0.4,0,0.9,0,1.4-0.1
			c21.5-0.5,22.5-23.7,22.5-23.9c0-0.7-0.3-1.3-0.9-1.7c-0.2-0.1-0.4-0.2-0.7-0.3c-0.4-0.1-0.8,0-1.2,0.2
			c-13.5,7.5-20.1,7.5-22.4,7.1l-0.1,0c-0.2,0-0.3-0.1-0.4-0.1c6-0.5,20.1-14.1,20.7-20c0.2-2.1-1-3.7-3.1-4c-1.4-0.2-3.3,0-5.8,0.8
			c-7.4,2.3-12,6.2-14.9,9.5c2.1-6.5,8.3-10,12.6-12.4c3-1.7,5-2.8,4.7-4.8c-0.3-2-2.7-2.7-5.3-3.4c-1-0.2-1.9-0.5-2.7-0.7
			c3.5,0.4,7.4,0.5,11.7-0.1c8.7-1.2,14.3-19,16.9-30c0.5,0.9,0.9,1.5,1.3,1.9c1.7,1.8,6.6,7.3,11.5,13.1c4,4.7,8,9.7,10.4,13.1
			C343.7,166.3,351.1,176,353.8,179.5z"/>
		<path class="st1" d="M373.4,156.5c-4.5-0.7-10.8-2.6-15.8-7.2c-4.5-4.2-6.7-12.4-7.2-18.2c0-0.5,0.3-0.9,0.7-1c0.1,0,0.2,0,0.3,0
			c0.3,0.1,0.6,0.3,0.7,0.6c0.1,0.3,0.2,0.6,0.3,1c3.1,8.9,8.7,14.1,16.8,15.4c8.2,1.4,17.6-1.3,25.1-3.5c2.1-0.6,4.1-1.2,5.9-1.6
			c2.4-0.6,4.9-0.7,7.2-0.3c6.3,1,10.7,5.4,12.8,7.8c0.2,0.2,0.2,0.4,0.2,0.7c0,0.3-0.2,0.5-0.4,0.6l-7.9,6.2
			c-0.2,0.2-0.5,0.2-0.7,0.2c-0.2,0-0.4-0.1-0.5-0.3c-1.5-1.6-4-2.8-7.3-3.3c-5.2-0.9-11.7-0.1-15.2,1.8
			C386.2,156.8,380.5,157.7,373.4,156.5z"/>
		<path class="st3" d="M419.6,150.1l-7.9,6.2c-1.6-1.8-4.3-3-7.8-3.6c-5.4-0.9-12.2-0.1-15.8,1.9c-2.3,1.3-8.1,2-14.6,1
			c-4.4-0.7-10.5-2.5-15.3-7c-3.8-3.5-5.8-10.1-6.6-15.1c-0.1-0.9-0.3-1.7-0.3-2.5c0.1,0.3,0.2,0.6,0.3,0.9
			c3.2,9.3,9.1,14.7,17.5,16.1c3.5,0.6,7.3,0.4,11-0.1c5.1-0.7,10.1-2.2,14.6-3.5c2.1-0.6,4.1-1.2,5.8-1.6c2.3-0.6,4.6-0.7,6.9-0.3
			C413.5,143.6,417.8,147.9,419.6,150.1z"/>
		<path class="st1" d="M400.1,141.1c-13.8,3.4-38.3,14.4-46.6-9.7c-5.5-17.9-6.3,9.4,3.5,18.6c9.8,9.2,26.8,9.2,32.1,6.3
			c5.2-2.9,19.5-3.4,22.2,2.8l10.9-8.6C422.2,150.4,413.9,137.7,400.1,141.1z M411.7,156.3c-1.6-1.8-4.3-3-7.8-3.6
			c-5.4-0.9-12.2-0.1-15.8,1.9c-2.3,1.3-8.1,2.1-14.6,1c-4.3-0.7-10.5-2.5-15.3-7c-4.4-4.2-6.4-12.4-6.9-17.6c0.1,0.3,0.2,0.6,0.3,1
			c3.2,9.3,9.1,14.7,17.5,16.1c8.4,1.4,17.9-1.3,25.5-3.5c2.1-0.6,4.1-1.2,5.8-1.6c2.3-0.6,4.6-0.7,6.8-0.3c6.1,1,10.3,5.3,12.2,7.5
			L411.7,156.3z"/>
		<path class="st4" d="M419.6,150.1l-7.9,6.2c-1.6-1.8-4.3-3-7.8-3.6c-5.4-0.9-12.2-0.1-15.8,1.9c-2.3,1.3-8.1,2-14.6,1
			c-4.4-0.7-10.5-2.5-15.3-7c-3.8-3.5-5.8-10.1-6.6-15.1c4.8,13.6,18,21.7,24.6,19.7c3.8-1.2,4.3-3.3,3.8-5.2
			c5.1-0.7,10.1-2.2,14.6-3.5c2.1-0.6,4.1-1.2,5.8-1.6c2.3-0.6,4.6-0.7,6.9-0.3C413.5,143.6,417.8,147.9,419.6,150.1z"/>
		<path class="st1" d="M340.8,159.1c-5.4-7.5-18.9-23-22.1-26.4c-1.7-1.8-4.8-10.5-7.6-18.6c0.9-0.2,1.8-0.4,2.8-0.7
			c10-3.1,10.9-8.6,9.5-11.7c-1.4-3.1,2.3-13.8-5.1-15c-6-1-13.6,0.2-15,5.5c-1.4-6.3-3.6-14.7-9.9-17.7
			c-9.7-4.4-20.7,5.1-18.1,12.1c2.6,7.1,7.1-2.6,9.4,12c2.3,14.6-9.5-5.4-21.5,4c-3.5,4.1-5.8,12.3,1.8,17.3s13.7-2.5,19.8,0.5
			c6.1,2.9,1.4,8.7,3.7,12c2.3,3.2-11.7,7.5-5.4,15.2c6.3,7.7,8.7-7.1,11.8,2.9c3.1,10-9.2,9.8-12.6,7.4c-3.4-2.5-6.3,3.7,7.4,6.9
			c13.7,3.2-13,4.4-14.1,22.2c-0.8,10.3,0-5.7,17.9-11.2c17.9-5.5-6.1,19.8-12.7,19.6c-6.6-0.2-1.8,11,24.2-3.5
			c0,0-0.8,21.6-20.7,22.1c-19.9,0.5,14.3,10.9,33.4,3.7l38.5-38C356.3,179.7,346.2,166.6,340.8,159.1z M307,192c0-0.1,0-0.2,0-0.3
			c2.5-2,4.7-4,6.7-6.1c2-2.1,4-4.4,6-6.9c3.7-4.7,7.1-9.8,10-15.2c1.8-3.3,3.3-6.4,4.7-9.6c1.7,2.1,3.2,4,4.4,5.6
			c-0.2,0.3-0.3,0.7-0.5,1c-1.6,3.3-2.9,5.7-4.2,8c-1.8,3-3.3,5.5-4.7,7.7c-1.7,2.5-3.4,4.9-5.3,7.3c-2.2,2.7-4.1,4.8-5.9,6.7
			c-1.9,2-4.1,3.9-6.7,6.1c-2.1,1.7-4.3,3.3-6.4,4.6C306.8,196.1,307,192.1,307,192z M305.2,92.7c1.1-3.9,7.4-5,12.9-4.1
			c3,0.5,3.4,3,3.2,8.6c-0.1,2.2-0.1,4,0.5,5.4c0.3,0.6,0.6,1.9-0.1,3.5c-0.1,0.3-0.3,0.6-0.5,0.9c-3.8,3-10.6-1.6-11.8-5.6
			c-1.2-4,0.3-1.8-2.5-2.3c-2.8-0.5-1.8-6-1.8-6l0,0C305.1,93,305.2,92.9,305.2,92.7z M298.8,173.3c-1.4-0.2-3.3,0-5.8,0.8
			c-7.4,2.3-12,6.2-14.9,9.5c2.1-6.5,8.3-10,12.6-12.4c3-1.7,5-2.8,4.7-4.8c-0.3-2-2.7-2.7-5.3-3.4c-3.4-0.8-5.5-1.7-6.8-2.5
			c0.6,0.2,1.3,0.4,2.1,0.5c3.3,0.5,7.7,0.1,10.2-2.7c1.2-1.4,2.4-4,1.1-8.3c-0.7-2.2-1.7-4.5-3.8-4.9c-1.6-0.3-2.8,0.7-3.9,1.6
			c-1,0.8-1.8,1.4-2.4,1.3c-0.6-0.1-1.3-0.7-2.1-1.6c-2.5-3-1-4.9,2.7-8.3c2.1-1.9,4.6-4.2,2.8-6.8c-0.5-0.7-0.3-2-0.2-3.4
			c0.3-2.7,0.7-6.9-4.2-9.2c-0.8-0.4-1.6-0.6-2.4-0.7c-2.5-0.4-4.9,0.3-7.2,0.9c-2.3,0.6-4.4,1.2-6.6,0.9c-1.2-0.2-2.3-0.6-3.4-1.4
			c-2.4-1.6-3.9-3.7-4.2-6.1c-0.5-3.2,1.1-6.5,2.6-8.3c2.4-1.8,4.9-2.4,7.8-1.9c2.4,0.4,4.6,1.5,6.6,2.4c1.5,0.7,2.8,1.3,3.9,1.5
			c0,0,0,0,0,0c1.5,0.3,2.4-0.3,3-0.8c1.2-1.2,1.4-3.1,0.8-6.8c-1.1-6.9-2.8-9.8-6.1-10.4c-0.4-0.1-0.8-0.1-1.1-0.1
			c-0.2,0-0.5,0-0.7-0.1c-0.4-0.1-0.9-0.1-1.5-1.8c-0.7-1.8-0.1-4.1,1.7-6.2c2.3-2.7,6.6-5.2,11.2-4.4c0.9,0.2,1.8,0.4,2.7,0.8
			c5.3,2.4,7.4,9.8,8.5,14.8c0,3.4,8.3,24.1,8.3,24.1l0,0c3.9,11.1,6.2,17,7.9,18.9c1.6,1.7,5.9,6.6,10.5,12c0,0.1-0.1,0.2-0.1,0.2
			c-0.9,1.8-1.7,3.2-2.6,4.8c-0.3,0.5-0.6,1-0.9,1.6c-1.4,2.5-2.8,4.7-4.1,6.9c-1.5,2.3-3,4.5-4.6,6.5c-2,2.5-3.6,4.4-5.2,6.1
			c-1.6,1.7-3.5,3.5-5.8,5.5c-0.6,0.5-1.1,1-1.7,1.5c-0.8,0.8-1.7,1.6-2.6,2.3c0.9-1.5,1.5-2.9,1.6-4
			C302.2,175.2,301,173.6,298.8,173.3z M305.4,190.1c-0.4-0.1-0.8,0-1.2,0.2c-13.5,7.5-20.1,7.5-22.4,7.1c-0.2,0-0.4-0.1-0.6-0.1
			c4.5-0.4,13.6-8.1,18.1-14.5c2.1-1.3,4.1-2.7,6.1-4.4c2.1-1.8,4.1-3.7,5.9-5.6c1.8-1.9,3.5-3.9,5.2-6.2c3.2-4.2,6.2-8.8,8.7-13.6
			c1.2-2.3,2.2-4.4,3.2-6.4c1.7,2.1,3.5,4.2,5.1,6.2c-0.3,0.7-0.6,1.3-1,2c-1.6,3.3-2.9,5.7-4.2,8c-1.8,3-3.3,5.5-4.7,7.7
			c-1.7,2.5-3.4,4.9-5.3,7.3c-2.2,2.7-4.1,4.8-5.9,6.7c-1.8,1.9-3.9,3.8-6.4,5.9C305.9,190.2,305.6,190.1,305.4,190.1z M289.3,217.4
			c-2.7-0.5-4.8-1-6.3-1.4c0.4,0,0.9,0,1.4-0.1c11.2-0.3,16.9-6.7,19.7-12.9c2.9-1.6,5.7-3.5,8.4-5.6c2.5-2,4.8-4.1,6.8-6.2
			c2-2.1,4-4.4,6-6.9c3.7-4.7,7.1-9.8,10-15.2c1.6-2.9,3-5.7,4.2-8.5c1,1.4,2.2,3.1,3.5,4.8c-0.5,1.3-1,2.4-1.4,3.3
			c-1.6,3.3-2.9,5.7-4.2,8c-1.8,3-3.3,5.5-4.7,7.7c-1.7,2.5-3.4,4.9-5.3,7.3c-2.2,2.7-4.1,4.8-5.9,6.7c-1.9,2-4.1,3.9-6.7,6.1
			c-3.9,3.2-14,10.1-20.5,13.7C292.1,217.8,290.3,217.6,289.3,217.4C289.3,217.4,289.3,217.4,289.3,217.4z M316.8,216.1
			c-6.6,2.4-14.4,2.5-20.2,2.1c6.8-3.8,15.8-9.9,19.3-12.7c2.5-2,4.8-4.1,6.8-6.2c2-2.1,4-4.4,6-6.9c3.7-4.7,7.1-9.8,10-15.2
			c1.6-2.9,3.2-6.6,5-11c3.9,5.2,8.2,10.8,10.1,13.2L316.8,216.1z"/>
		<path class="st1" d="M264,106.2c0,0-10.9,4.9-10.9,15.1c-0.3,1.6,6.2-6.6,13.4-4.5C273.7,118.8,269.5,103.7,264,106.2z"/>
		<path class="st0" d="M255.2,118c1.9-6.8,9.4-10.3,9.5-10.3c0.3-0.1,0.5-0.2,0.7-0.1c0.9,0.2,2,1.5,2.7,3.2
			c0.7,1.9,0.7,3.6,0.2,4.2c-0.1,0.1-0.2,0.3-1,0.2c0,0,0,0,0,0c-0.1,0-0.3-0.1-0.4-0.1c-0.4-0.1-0.7-0.2-1.1-0.3
			C261.5,114.1,257.7,116.2,255.2,118z"/>
		<path class="st1" d="M289.2,73.7c0,0-8.4-8.6-17.9-5.1c-1.6,0.3,8.3,3.5,8.9,11C280.7,87.1,293.3,78,289.2,73.7z"/>
		<path class="st0" d="M275,69.5c7.1-0.5,12.9,5.3,12.9,5.4c0.2,0.2,0.3,0.4,0.4,0.6c0.2,0.9-0.7,2.4-2.1,3.7
			c-1.5,1.3-3.2,1.9-3.9,1.6c-0.1,0-0.4-0.1-0.5-0.8c0,0,0,0,0,0c0-0.1,0-0.3-0.1-0.4c0-0.4-0.1-0.8-0.1-1.1
			C280.8,74.1,277.5,71.2,275,69.5z"/>
		<path class="st1" d="M285.9,149c0,0-8,2.6-12.8-2.6c-0.9-0.7,6.3,0.5,9.1-4C284.9,137.8,289.9,147.6,285.9,149z"/>
		<path class="st0" d="M276.9,146.8c3.4,2.1,7.8,0.7,7.9,0.7c0.2,0,0.3-0.1,0.3-0.2c0.3-0.4,0.3-1.4-0.1-2.4
			c-0.4-1.1-1.1-1.8-1.5-1.8c-0.1,0-0.2,0-0.5,0.3c0,0,0,0,0,0c0,0.1-0.1,0.1-0.1,0.2c-0.1,0.2-0.2,0.4-0.4,0.5
			C281,146,278.6,146.6,276.9,146.8z"/>
		<path class="st1" d="M382.6,166.6c0,0,0-5.7,2.1-7.2s0,5.7,3.4,8.1L382.6,166.6z"/>
		<path class="st0" d="M384,164.9c0.1-1.5,0.4-3.5,1.1-4.4c0,0.3,0,0.6,0.1,0.9c0.1,1.1,0.1,2.6,0.6,3.8L384,164.9z"/>
		<path class="st1" d="M382.1,133.7c0,0,0.5,7.3,3.4,9.1c2.9,1.8-0.5-7.3,3.7-10.8L382.1,133.7z"/>
		<path class="st0" d="M384,135.7c0.3,1.9,0.9,4.5,1.8,5.6c0-0.3,0-0.8,0-1.1c0-1.4-0.1-3.4,0.5-5L384,135.7z"/>
		<path class="st3" d="M479.1,183.1c-0.2,0.3-0.6,0.5-0.9,0.4l-0.2,0c-0.9-0.2-2.2-0.6-3.6-1.1c-1.8-0.6-3.9-1.3-5.9-1.6
			c-1.5-0.3-2.8-0.3-3.9,0c-1,0.2-2.2,0.2-3.4,0c-3.5-0.6-6.7-2.6-6.8-2.7c-0.1-0.1-0.2-0.1-0.3-0.1c-0.2,0-0.3,0-0.5,0.1
			c-0.3,0.1-0.5,0.3-0.6,0.6c-0.1,0.4-2.2,9.3,8.4,14.8c0.4,0.2,0.6,0.6,0.5,1c-0.1,0.4-0.5,0.7-0.9,0.7c-1,0-2.1-0.1-3.2-0.2
			c-2.4-0.4-6-1.5-9-4.5c-1.2-1.1-2.3-1.8-3.4-2c-0.8-0.1-3.4-0.2-4.6,4c-1.3,4.9,0.4,12.3,4.9,15.5c0.3,0.2,0.5,0.6,0.4,1
			c-0.1,0.4-0.4,0.7-0.7,0.7c-1.1,0.2-2.8,0.4-4.9,0c-2.3-0.4-4.3-1.3-5.9-2.7c-0.7-0.6-1.3-1-1.9-1.1c-0.6-0.1-1.1,0-1.6,0.4
			c-1.5,1.1-1.8,4.2-2.2,8.5c-0.6,6-1.4,13.4-5.6,14.9c-5.9,2.1-9.8,5.3-10.1,8.5c-0.1,0.7,0,1.3,0.3,1.9c0.1,0.3,0.1,0.7-0.2,1
			c-0.2,0.2-0.5,0.3-0.8,0.3c0,0-0.1,0-0.1,0c-2.3-0.8-7.8-3.2-8.8-9.6c-0.2-1.4-0.7-3.1-2-3.3c-2-0.3-3.4,3.5-4,5.8
			c-1.9,6.9-1.8,16.4,2.8,21.1c0.3,0.3,0.3,0.7,0.2,1.1c-0.2,0.4-0.6,0.6-1,0.5c-0.2,0-0.4-0.1-0.6-0.1c-4-0.7-9.1-3.1-11.1-10.7
			c-1.1-4.2-2-4.9-2.8-5c-0.5-0.1-1.2,0-1.8,1.2c-2.1,4.1-1.9,20.3,3.3,27.9c0.2,0.3,0.2,0.7,0,1c0,0.1-0.1,0.1-0.1,0.1
			c-0.2,0.2-0.4,0.4-0.7,0.4c-0.8,0-1.7-0.1-2.7-0.3c-1.4-0.2-13.8-2.6-14.2-12.2c-0.1-1.7-0.3-3.5-1.7-3.7c-1.9-0.3-3.8,2.9-9.2,14
			c-4.4,9-7,14.1-8.6,15c-0.1,0-0.1,0.1-0.2,0.1c0,0-0.1,0-0.1,0c-0.2,0.1-0.3,0.1-0.5,0l0,0c-0.9-0.2-2-1.1-3.3-2.2
			c-1.4-1.2-2.9-2.4-4.3-2.7c-0.9-0.1-2.1,0-3,1.5c-1.4,2.3-1.2,5.2-1,7.5c0.2,2.4,0.3,4.2-0.9,5.1c-0.5,0.4-1.1,0.5-1.7,0.4
			c-2.4-0.4-4.9-4.3-4.7-9.4c0.1-2-0.3-2.9-1.2-3c-0.9-0.1-2,0.2-4.5,6.5c-1.4,3.4-2.6,7.1-3.1,9.7c-0.1,0.3-0.2,0.5-0.5,0.6
			c-0.2,0.1-0.4,0.1-0.6,0.1c-0.1,0-0.2,0-0.2-0.1c-2.9-1.3-8.3-7.6-8.3-11.3c0-2-1.2-3.4-3.2-3.7c-3.6-0.6-9.7,2.2-10.3,5.4
			c-0.1,0.6-0.2,1.3-0.3,1.9c-0.4,3.4-1,7.7-3.5,7.9c-1,0.1-2.2,0.4-3.5,0.8c-1.9,0.5-4,1.1-5.6,0.9c-1.5-0.2-2.4-1.2-2.8-3.1
			c-0.5-1.9-1.3-2.9-2.6-3.2c-1.5-0.2-2.9,0.8-3.8,1.8c-2.1,2.2-3.9,6.1-3.2,9c0.2,0.8,0.3,1.6,0.5,2.3c0,0,0,0,0,0
			c0.8,4.2,0.8,6.8-1.7,7.6c-0.4,0.1-0.9,0.3-1.5,0.5c-3.2,1.1-9.2,3.1-13.3,2.4c-2.9-0.5-4.3-2.2-4.3-5.4c0-1.6,0-6.7-3.2-7.2
			c-2.7-0.5-6.3,2.9-9.8,6.6c-1.8,1.9-4.8,3-7.4,2.5c-3.5-0.6-5.4-3.6-5.1-8c0.4-5.2,3.7-5.7,8.2-6.4c3.4-0.5,7.3-1.1,10.4-4
			c1.8-1.7,3.2-3.7,4.5-5.6c4.1-5.8,8.3-11.7,23.8-14c0,0,0.1,0,0.1,0c3.7-1.2,7.1-6.4,11.7-13.6c5.8-9,13-20.3,23.6-27
			c0.1-0.1,0.2-0.1,0.3-0.2c0.9-1.2,0.7-2.2,0.5-2.8c-0.7-1.8-3.5-3.1-8-3.8c-4.6-0.8-11.4-0.9-15.5,0.6c-5.8,2.1-11.5,4.8-14,9.9
			c-0.2,0.4-0.6,0.6-1,0.5s-0.7-0.4-0.8-0.8c-0.1-0.7-0.1-1.3-0.1-2c0.1-1.3,0.5-3.9,2.5-5.6c1.6-1.4,7-3.6,13.2-6.2
			c15.5-6.5,36.7-15.3,42.5-26.4c6.4-12,18.4-26.2,39.5-25.9c2.5,0,4.8,0.2,6.8,0.6c5.4,0.9,7.7,2.6,9.6,4.2c1.3,1,2.4,1.9,4.1,2.1
			c0.9,0.2,2,0.1,3.2-0.1c1-0.2,2.3-0.6,2.5-1.7c0.3-1.6-2.1-3-6.5-5.5c-6-3.3-8-4.9-8.3-6.2c0,0,0-0.1,0-0.1c0-0.5,0.1-0.9,0.5-1.2
			c1.1-1,4-1.2,7.9-0.5c1.9,0.3,4,0.8,5.7,1.4c0.7,0.2,1.4,0.4,2,0.5c4.8,0.8,7.3-2.5,10.6-7.5c3-4.7,4.5-5.2,7.9-6.4
			c0.7-0.3,1.5-0.5,2.4-0.9c3.8-1.5,6.4-6.1,6.7-9.6c0.2-2.5-0.7-4.5-2.4-5.5c-0.5-0.3-1.1-0.7-1.7-1.1c-2.4-1.6-5.1-3.4-8.7-3.9
			c-2.8-0.5-5.6-0.1-8.7,1c-5.8,2-9.7,2.8-12.9,3.5c-1.8,0.4-3.3,0.7-4.8,1.1c-1.3,0.4-2.5,1.2-3.5,1.9c-1.4,0.9-2.5,1.7-3.6,1.5
			c-0.8-0.1-1.6-0.8-2.4-2c-3.4-4.7-8.5-20.5,0-28.1c0.2-0.1,0.3-0.3,0.3-0.5c0.3-1.6,1.7-7.1,8.3-8.1c1.5-0.2,3-0.3,4.5-0.3
			c4.3-0.1,8.8-0.2,11.2-5.1c0,0,0-0.1,0.1-0.1c0.6-0.9,6.5-8.8,14.7-8.2c0.8,0,1.5,0.1,2.3,0.3c3.5,0.6,5.2,1.8,6.8,3
			c1.2,0.8,2.3,1.7,3.9,1.9c0.5,0.1,0.9,0.1,1.4,0.1c1.7-0.1,3.6-0.3,5.4-0.6c2.4-0.3,4.8-0.7,6.4-0.4c0.4,0.1,0.7,0.2,1,0.3
			c0.8,0.4,1.7,0.7,2.7,0.9c2.5,0.4,4.9,0.1,6.3-0.9c0.2-0.1,0.4-0.2,0.7-0.2c0.1,0,0.1,0,0.2,0c0.3,0.1,0.5,0.4,0.6,0.7
			c0,0.2,0.1,0.4,0.1,0.6c0,0.7-0.2,1.7-1.2,2.8c-0.5,0.5-1.2,1.2-0.9,2c0.1,0.4,0.5,0.8,1,0.8c1.4,0.2,5.8-1.5,9.6-4.9
			c0.2-0.2,0.5-0.3,0.8-0.2c0.1,0,0.3,0.1,0.4,0.2c0.3,0.3,0.5,0.7,0.3,1.1c-0.5,1.2-1,2.2-1.3,2.9c-0.2,0.4-0.4,0.9-0.1,1.5
			c0.4,0.8,1.4,1.1,2.9,1.4c0.6,0.1,1.3,0.2,2.1,0.3c0.9,0.1,1.7,0.2,2.5,0.3c2.9,0.5,4.5,1.2,5,2.3l0.4,0.7
			c2.1,3.9,4.9,9.3,1.2,12.6c-2.5,2.2-2.4,4.4-2.3,6.2c0.1,1.8,0.1,3-2.1,4.2c-2.9,1.6-4.4,3.6-4,5.5c0.3,2,2.5,3.4,6.3,4.2
			c0.4,0.1,0.7,0.5,0.7,0.9c0,0.4-0.3,0.8-0.7,0.9c-1.1,0.2-2.1,0.4-3,0.4c-1.6,0.1-1.8,1.2-1.8,1.6c-0.1,2.4,5.2,6.3,9.6,7
			c0.5,0.1,1,0.1,1.5,0.1c0,0,0.1,0,0.1,0c0.3,0.1,0.6,0.3,0.7,0.7c0.1,0.4-0.1,0.8-0.4,1c-1.2,0.8-3.5,2-5.9,1.6
			c-0.2,0-0.5-0.1-0.7-0.2c-0.4-0.1-0.7-0.2-1-0.3c-0.7-0.1-1.3-0.1-1.7,0.1c-0.6,0.2-0.9,0.7-1,1.3c-0.4,2.3,3.7,6.6,9.1,7.5
			c0.9,0.2,1.8,0.2,2.7,0.2c0.6,0,1.2,0,1.6,0.1c0.3,0,0.5,0.1,0.7,0.2c0.5,0.2,0.7,0.7,0.5,1.2c-0.1,0.3-0.4,1-1.4,1.8
			c-1.4,1.1-3.7,2.2-6.2,1.7c-0.3,0-0.6-0.1-0.8-0.2c-0.6-0.2-1.1-0.3-1.7-0.4c-3.5-0.6-6.2,0.4-6.8,2.4c-0.7,2.3,1.7,4.9,6.7,7.1
			c5.3,2.3,6.9,4.4,7.3,5.8C480.1,181.6,479.3,182.7,479.1,183.1z"/>
		<path class="st4" d="M386.3,271.2c-0.2,0.2-0.4,0.4-0.7,0.4c-0.8,0-1.7-0.1-2.7-0.3c-1.4-0.2-13.8-2.6-14.2-12.2
			c-0.1-1.7-0.3-3.5-1.7-3.7c-1.9-0.3-3.8,2.9-9.2,14c-4.4,9-7,14.1-8.6,15c-0.1,0-0.1,0.1-0.2,0.1c0,0-0.1,0-0.1,0
			c-0.2,0.1-0.3,0.1-0.5,0l0,0c-0.9-0.2-2-1.1-3.3-2.2c-1.4-1.2-2.9-2.4-4.3-2.7c-0.9-0.1-2.1,0-3,1.5c-1.4,2.3-1.2,5.2-1,7.5
			c0.2,2.4,0.3,4.2-0.9,5.1c-0.5,0.4-1.1,0.5-1.7,0.4c-2.4-0.4-4.9-4.3-4.7-9.4c0.1-2-0.3-2.9-1.2-3c-0.9-0.1-2,0.2-4.5,6.5
			c-1.4,3.4-2.6,7.1-3.1,9.7c-0.1,0.3-0.2,0.5-0.5,0.6c-0.2,0.1-0.4,0.1-0.6,0.1c-0.1,0-0.2,0-0.2-0.1c-2.9-1.3-8.3-7.6-8.3-11.3
			c0-2-1.2-3.4-3.2-3.7c-3.6-0.6-9.7,2.2-10.3,5.4c-0.1,0.6-0.2,1.3-0.3,1.9c-0.4,3.4-1,7.7-3.5,7.9c-1,0.1-2.2,0.4-3.5,0.8
			c-1.9,0.5-4,1.1-5.6,0.9c-1.5-0.2-2.4-1.2-2.8-3.1c-0.5-1.9-1.3-2.9-2.6-3.2c-1.5-0.2-2.9,0.8-3.8,1.8c-2.1,2.2-3.9,6.1-3.2,9
			c0.2,0.8,0.3,1.6,0.5,2.3c-1.1-2.1-1.6-4.5-1-6.9c3.1-11.6,26.2-28,34.6-27.5c8.4,0.5,9.4-16.4,17.3-18.9
			c8-2.5,14.4-24.1,17.6-26.4s4,10.1,9.1,8.1c5.1-2-2-10.7,0-11.4c2-0.6,3.7,6.3,4.8,5.5s0-5.7,8.4-5.2s3.8,11,6.4,12.4
			s3.7,6.3,7.7,22.1C379.5,267,383.1,270.1,386.3,271.2z"/>
		<path class="st4" d="M433.9,125.9c0,0,3.4,8.1,0.9,11.5c-2.5,3.4-2.9-5.2-5.5-0.9c-2.6,4.3-4,18.3,2.1,21.2
			c6.1,2.9,11.7-13.2,15.3-6.9c3.7,6.3-6.3,9.4-2.1,12.9s11-3.8,10-14.4c-1.1-10.6-3.4-25.2-5.7-28.4c-2.3-3.2-4.8-11.2-7.7-10.7
			C438.3,110.6,430.5,117.8,433.9,125.9z"/>
		<path class="st1" d="M407.8,100.7c0,0-3.2,2.3-1.4,2.6c1.8,0.3,2.1-1.5,3.7,0.6s0.3-1.8,2.3-2.5c2-0.6,3.1,4.3,1.1,4.9
			c-2,0.6,0.9,0.2,1.4,3.1c0.5,2.9,2-0.6,5.7,0c3.7,0.6,5.4,1.8,11.5-0.9c4-1.2-4.8,0.2-8.3-1.4C420.2,105.7,415.6,93.5,407.8,100.7
			z"/>
		<path class="st1" d="M408,105.5c0,0,1.4,3.1,3.1,4.3s-2.9,0.5-4.4-1.7C405,106,407.2,104.4,408,105.5z"/>
		<path class="st1" d="M384,106.6c0,0-1.8,1.4,0.3,2.6s3,0.5,3.8,0.6C388.9,109.9,388,105.6,384,106.6z"/>
		<path class="st1" d="M411.5,94.5c-0.8,0-1.7,0-2.4,0.1c-0.8,0.1-1.4,0.4-2.1,0.7c-0.6,0.4-1.3,0.8-1.9,1.4
			c-0.2,0.1-0.3,0.3-0.5,0.4l-0.5,0.4c-0.3,0.3-0.6,0.6-1,0.9l-0.3,0.2c-0.3,0.3-0.9,0.2-1.1-0.1c-0.2-0.3-0.2-0.6-0.1-0.9l0.8-1.3
			c0.3-0.4,0.6-0.8,0.9-1.2c0.7-0.8,1.5-1.4,2.4-1.9c1-0.5,2-0.8,3.1-0.8c1.1,0,2.1,0.1,3.2,0.6c0.4,0.2,0.6,0.6,0.4,1
			c-0.1,0.3-0.5,0.5-0.8,0.5L411.5,94.5z"/>
		<path class="st1" d="M403.9,126.3c2.6-0.7,5.3-1.2,8.2-1.4c2.8-0.2,5.8,0,8.7,0.7c2.9,0.7,5.5,2.3,7.2,4.2
			c1.7,1.9,2.7,4.1,3.2,6.2c0.1,0.3-0.2,0.6-0.6,0.6c-0.4,0-0.7-0.1-0.8-0.4l-0.1-0.1c-1-2-2.2-3.8-3.7-5.4
			c-1.6-1.5-3.5-2.7-5.9-3.3c-2.4-0.7-5-0.9-7.6-0.9c-2.6,0.1-5.3,0.3-7.9,0.8l-0.1,0c-0.4,0.1-0.8-0.1-0.9-0.4
			C403.4,126.7,403.5,126.4,403.9,126.3z"/>
		<path class="st1" d="M386.1,122.2c-0.6,0.8-1.1,1.8-1.4,2.7c-0.1,0.5-0.2,0.9-0.2,1.3c0,0.4,0.1,0.6,0.4,0.9
			c0.5,0.5,1.5,0.8,2.6,1c1,0.1,2.2,0.2,3.3,0.1l0,0c0.5,0,0.9,0.4,1,0.9c0,0.5-0.4,0.9-0.9,1c-1.2,0.1-2.4,0.1-3.6-0.1
			c-1.2-0.2-2.6-0.4-3.7-1.5c-0.6-0.5-0.9-1.4-1-2.1c-0.1-0.8,0.1-1.5,0.3-2.1c0.4-1.3,1.1-2.3,1.9-3.3c0.3-0.4,0.9-0.5,1.3-0.1
			c0.4,0.3,0.5,0.8,0.2,1.2L386.1,122.2z"/>
		<path class="st1" d="M469.3,121.6c-0.3-0.4-0.9-0.4-1.3-0.1l-0.2,0.2c-0.2,0.1-0.6,0.4-1,0.6c-0.4,0.2-0.8,0.4-1.2,0.6
			c-0.9,0.3-1.7,0.6-2.6,0.8c-0.9,0.2-1.8,0.3-2.6,0.3c-0.8,0-1.5-0.2-1.9-0.6c-0.4-0.3-0.6-0.8-0.8-1.4c-0.1-0.6,0-0.7,0.3-1.2
			c0.4-0.4,1.1-0.9,1.9-1.4c0.8-0.5,1.7-0.9,2.8-1.8c0.3-0.2,0.6-0.5,0.8-0.9c0.3-0.4,0.5-0.9,0.6-1.5c0.1-0.6,0-1.2-0.3-1.8
			c-0.1-0.3-0.4-0.7-0.7-0.9c-0.3-0.3-0.7-0.5-1-0.6c-0.7-0.2-1.1-0.2-1.5-0.2c-0.4,0-0.7,0.1-1,0.1l-1.5,0.3
			c-0.1,0-0.3,0.1-0.4,0.1c0-0.1,0-0.1,0-0.2c0-0.2,0.1-0.3,0.1-0.5c0-0.1,0-0.3,0.1-0.4c0.4-1.1,1.9-2,3.6-2.5
			c1.7-0.6,3.7-0.8,5.5-1l0.2,0c0.5,0,0.8-0.4,0.8-0.9c0-0.5-0.4-0.9-0.9-1c-2.1-0.1-4.1,0-6.2,0.5c-1,0.2-2.1,0.6-3,1.1
			c-1,0.6-1.9,1.3-2.5,2.5c-0.2,0.3-0.2,0.6-0.3,0.8c-0.1,0.3-0.2,0.6-0.2,0.9c-0.1,0.6-0.1,1.1,0.1,1.9c0.1,0.4,0.3,0.8,0.7,1.1
			c0.4,0.3,0.8,0.4,1.2,0.5c0.7,0.1,1.3,0,1.8-0.1l1.4-0.3c0.4-0.1,0.9-0.1,1-0.1c0,0,0,0.2,0,0.2c0,0.1-0.2,0.4-0.5,0.6
			c-0.6,0.5-1.5,1-2.4,1.5c-0.9,0.5-1.8,1.1-2.6,2c-0.4,0.5-0.7,1-0.9,1.7c-0.2,0.6-0.1,1.3,0,1.9c0.2,1.1,0.9,2.3,2,3
			c1.1,0.7,2.3,0.8,3.4,0.8c1.1,0,2.2-0.2,3.2-0.5c1-0.3,2-0.7,2.9-1.1c0.5-0.2,0.9-0.5,1.4-0.8c0.5-0.3,0.9-0.6,1.4-1.2
			C469.6,122.4,469.6,121.9,469.3,121.6z"/>
		<path class="st5" d="M404.6,171.2c0,0,5.7,0,3.7,6.3"/>
		<path class="st5" d="M343.4,192.2c0,0,2.9-0.5,4.3,2.6c1.4,3.1,0.3,3.8,5.2,2.8c4.9-1.1,1.4,8.7,9.4,6.3"/>
		<path class="st1" d="M472.8,173.5c-10.6-4.6-6-9.5,1.2-7.4s14.4-7.1,5.8-6.6c-8.6,0.5-14.6-9-8.3-7.1c6.3,2,14.4-7.1,8.4-5.2
			c-6,1.8-15-6.3-11.2-6.6c3.8-0.3,12.7-2.6,7.2-3.5c-12.1-1.1-11.4-5.7-6.1-8.6s0.2-6.6,4.6-10.6c4.4-4,0.8-10.3-1.4-14.4
			c-2.1-4.1-13.8-2.3-12.4-4.9c1.4-2.6,6.3-15,1.4-8.3s-14.9,9.8-11.5,6.6c3.4-3.2,0.3-7.5-0.9-5.8c-1.2,1.7-6,1.8-8.6,0.5
			s-8.6,0.5-13.3,0.6c-4.8,0.2-4.9-4.6-14.3-5.2c-9.4-0.6-15.6,8.7-15.6,8.7c-2.9,6.1-9.2,4.1-15,5.1c-5.8,0.9-8.4,5.2-9.1,8.9
			c-8.9,8-4,23.9-0.2,29.3c3.8,5.4,6.6,0.2,10.6-1.1c4-1.2,8.7-1.4,17.8-4.6c9.1-3.2,14,1.4,18.3,4c4.3,2.6,0.9,11.5-4.1,13.5
			c-5.1,2-6.9,1.7-10.7,7.7s-6.1,8.4-11.5,6.6c-5.4-1.8-15.5-3.5-15.3,1.2c0.2,4.8,20.9,11,13,12.6s-4.6-6.4-23.5-6.7
			s-32.1,10.7-40.3,26.4s-50,27.6-55.5,32.4c-5.5,4.8-1.7,15.8,0.2,10.4s7.1-8.3,14.1-10.9c7.1-2.6,25.6-0.5,21.9,4.6
			c-19,12-27.1,38-35.1,40.5c-21.3,3.1-22.1,13.3-28.8,19.8c-6.7,6.4-18.1,0.8-18.9,11s9.5,11,14.1,6.1c4.6-4.9,11.4-11.4,11.4,0
			c0,11.4,16.3,4.6,20.2,3.4c4-1.2,2.9-6.1,1.8-11c-1.1-4.9,6.1-14.1,7.8-7.2c1.7,6.9,9.1,2.5,12.9,2.1c3.8-0.3,4-6.9,4.6-10.6
			s11.7-7.5,11.7-1.8c0,5.7,10.6,16,11.4,11.4c1.1-6.4,7.4-21.5,7.1-14c-0.3,7.5,4.6,12.1,7.8,9.8c3.2-2.3-0.5-8.6,2.1-12.9
			c2.6-4.3,7.7,5.1,10.7,3.7c4.9-1.1,17.9-39.6,18.6-26.2c0.6,13.3,23,15.2,20.7,12c-8.9-9.1-5.5-40.7-1.5-24.9
			c4,15.8,21.8,11.2,17.2,10.4c-13.3-5.1-3.4-36.5-1.5-24.9c1.8,11.7,17.8,12.4,13.5,9.8c-4.3-2.6-1.5-7.8,7.5-11
			c9.1-3.2,3.8-28.7,10.4-22.9c6.6,5.8,17.6,2,14.1,0.5c-9.8-3.5-8.1-25,0-17c8.1,8,21,4.4,16.6,2.8c-13.3-5.1-10.7-15-10.7-15
			s6,3.8,10.9,2.8c4.9-1.1,13.5,4.1,14.7,2.5C480.7,182.4,483.4,178.1,472.8,173.5z M478.3,182.6c0,0-0.1,0-0.2,0
			c-0.8-0.1-2.1-0.6-3.5-1c-1.9-0.6-4-1.3-6.1-1.7c-1.6-0.3-3-0.3-4.2,0c-0.9,0.2-1.9,0.2-3.1,0c-2.5-0.4-4.8-1.6-5.8-2.2
			c0-0.2,0-0.4,0.1-0.7c0-0.4,0-0.8,0-1.2c-0.1-0.8-0.2-1.6-0.4-2.4c-0.4-1.6-1.2-3-2-4.3c-0.9-1.3-2-2.4-3.2-3.3
			c-0.6-0.5-1.2-0.9-1.9-1.3l-2-1l1.7,1.5c0.5,0.5,1,1,1.5,1.6c0.9,1.1,1.8,2.3,2.4,3.5c0.6,1.2,1,2.6,1.2,3.9
			c0.1,0.7,0.1,1.3,0.1,2c0,0.3,0,0.7-0.1,1c0,0.2-0.1,0.5-0.1,0.7c-0.3,0.2-0.6,0.6-0.7,1c0,0.1-2.4,10,8.8,15.9
			c-0.9,0-1.9,0-3-0.2c-2.3-0.4-5.7-1.4-8.5-4.2c-1.3-1.3-2.6-2-3.9-2.2c-2-0.3-4.6,0.7-5.6,4.7c-1.3,5,0.2,12.9,5.3,16.5
			c-1.2,0.2-2.8,0.3-4.6,0c-2.1-0.4-4-1.2-5.4-2.5c-0.8-0.7-1.6-1.2-2.4-1.3c-0.5-0.1-1,0-1.4,0.1c-0.1-0.1-0.1-0.1-0.2-0.2
			c-0.2-0.2-0.4-0.4-0.5-0.7c-0.3-0.5-0.6-1-0.8-1.5c-0.4-1.1-0.7-2.4-0.7-3.7c-0.1-0.6,0-1.3,0-2c0.1-0.7,0.1-1.3,0.2-2
			c0.1-0.7,0.2-1.4,0.3-2c0.1-0.7,0.3-1.4,0.4-2.1c-0.4,0.6-0.7,1.2-1,1.9c-0.3,0.6-0.6,1.3-0.8,2c-0.3,0.7-0.4,1.4-0.6,2.1
			c-0.1,0.7-0.3,1.4-0.3,2.2c-0.1,1.5,0,3,0.5,4.5c0.1,0.4,0.3,0.7,0.5,1.1c0.2,0.3,0.4,0.7,0.7,1c0.2,0.3,0.5,0.6,0.8,0.8
			c-1.1,1.6-1.4,4.4-1.9,8.3c-0.6,5.4-1.4,12.8-5,14.1c-5.4,1.9-9,4.7-10.3,7.6c-0.1-0.5-0.2-0.9-0.2-1.4c-0.2-1.8-0.2-3.6,0.1-5.4
			l0.2-1.4l0.3-1.3c0.1-0.5,0.3-0.9,0.4-1.3l0.2-0.7l0.2-0.8c0.1-0.5,0.3-1,0.3-1.5c0.1-0.5,0.1-1,0.1-1.6l-0.1-1.5
			c-0.1-0.5-0.2-1-0.2-1.5c-0.4-2-1.2-3.8-1.8-5.6c-0.6-1.8-1.1-3.6-1.2-5.4c-0.1-3.7,1.4-7.4,3.6-10.6l-1.7,2.3
			c-0.5,0.8-1,1.7-1.4,2.5c-0.8,1.8-1.3,3.7-1.4,5.7c-0.1,2,0.4,4,0.9,5.8c0.5,1.9,1.2,3.7,1.4,5.5c0.1,0.4,0.1,0.9,0.2,1.3l0,1.3
			l-0.2,1.3c0,0.4-0.2,0.9-0.3,1.3l-0.2,0.6l-0.2,0.7c-0.2,0.5-0.3,0.9-0.5,1.4l-0.4,1.4l-0.3,1.5c-0.6,3.6-0.5,7.3,1,10.8
			c-3-1.3-6.3-3.9-7-8.5c-0.2-1-0.6-3.8-2.8-4.1c-2.1-0.4-3.8,1.8-5.1,6.5c-1.2,4.6-1.8,11-0.2,16.2c-0.5-0.9-0.9-1.9-1.2-2.8
			c-1.1-3.3-1.7-6.8-2-10.4c-0.3-3.6-0.8-7.3-1.6-10.9c-0.4-1.8-0.9-3.5-1.6-5.3c-0.3-0.8-0.7-1.7-1.2-2.5c-0.5-0.8-0.9-1.6-1.6-2.2
			c1.1,1.4,1.7,3.2,2.2,4.9c0.5,1.7,0.8,3.5,1.1,5.3c0.5,3.6,0.8,7.1,0.9,10.7l0.2,2.8c0.1,0.9,0.2,1.8,0.3,2.8
			c0.1,0.9,0.3,1.8,0.5,2.7c0.2,0.9,0.4,1.8,0.7,2.7c0.6,1.8,1.4,3.5,2.4,5.2c0.5,0.8,1.2,1.6,1.9,2.3c0.1,0.1,0.1,0.1,0.2,0.2
			c-3.4-0.9-7.3-3.4-8.9-9.7c-1-3.9-2-5.5-3.6-5.7c-0.5-0.1-1.9-0.1-2.8,1.7c-2.2,4.2-2.2,20.8,3.3,28.9c-0.7,0-1.5-0.1-2.6-0.3
			c-1.3-0.2-13.1-2.4-13.5-11.3c-0.1-1.2-0.2-4.2-2.5-4.6c-1.7-0.3-3.1,0.9-5.4,5.1c0.3-1.5,0.6-3,0.8-4.5c0.3-2.6,0.3-5.2-0.2-7.8
			c-0.5-2.6-1.7-5.2-3.8-6.7c1.6,2,2.3,4.5,2.5,6.9c0.2,2.5,0,4.9-0.4,7.4c-0.4,2.5-0.9,4.9-1.5,7.3c-0.5,1.9-1,3.7-1.6,5.6
			c-0.2,0.4-0.4,0.8-0.6,1.2c-2.5,5.1-6.6,13.7-8.3,14.6c-0.1,0-0.1,0-0.2,0.1c-0.7-0.1-2-1.2-2.9-2c-1.1-0.9-2.2-1.8-3.3-2.4
			c0.9-1.1,1.7-2.3,2.3-3.6c0.8-1.7,1.3-3.6,1.4-5.4c0.1-1.9,0-3.7-0.6-5.5c-0.2-0.9-0.6-1.7-0.9-2.6c-0.4-0.8-0.8-1.6-1.3-2.4
			c0.2,0.9,0.4,1.7,0.6,2.6l0.2,1.3l0.1,0.6l0.1,0.6c0,0.4,0.1,0.9,0.1,1.3l0,1.3c0,0.4,0,0.8-0.1,1.3c0,0.4,0,0.8-0.1,1.3
			c-0.2,1.7-0.7,3.3-1.4,4.8c-0.6,1.4-1.4,2.7-2.2,3.9c-1-0.1-2.4,0.2-3.5,2c-1.6,2.6-1.3,5.6-1.1,8.1c0.2,2.3,0.2,3.7-0.5,4.3
			c-0.3,0.2-0.6,0.3-1,0.2c-1.7-0.3-4.1-3.5-3.9-8.5c0-1,0.1-3.6-2-4c-1.6-0.3-3,0.8-5.5,7.1c-1.4,3.5-2.6,7.3-3.1,9.9
			c-2.6-1.2-7.8-7.2-7.8-10.5c0-2.5-1.5-4.2-4-4.7c-4.1-0.7-10.7,2.4-11.3,6.2c-0.1,0.6-0.2,1.3-0.3,2c-0.4,2.8-0.9,6.9-2.6,7
			c-1.1,0.1-2.4,0.4-3.7,0.8c-1.8,0.5-3.8,1.1-5.2,0.8c-0.8-0.1-1.6-0.5-2.1-2.4c-0.7-2.8-2.2-3.7-3.4-3.9c-1.5-0.3-3.1,0.5-4.6,2.1
			c-2.2,2.3-4.2,6.6-3.5,9.8c1.3,5.7,1.5,8.2-0.6,8.9c-0.4,0.1-0.9,0.3-1.5,0.5c-3.1,1.1-8.9,3-12.8,2.4c-2.4-0.4-3.5-1.8-3.5-4.5
			c0-1.8,0-7.5-4-8.1c-3-0.5-6.4,2.4-10.6,6.9c-1.6,1.7-4.3,2.6-6.6,2.2c-3-0.5-4.6-3-4.3-7c0.3-4.3,2.5-4.8,7.4-5.5
			c3.6-0.5,7.6-1.2,10.9-4.3c1.8-1.8,3.3-3.8,4.6-5.7c4-5.6,8-11.4,23.2-13.6c0.1,0,0.2,0,0.3-0.1c4.1-1.3,7.5-6.6,12.2-14
			c5.7-9,12.8-20.1,23.4-26.7c0.2-0.1,0.4-0.3,0.5-0.5c1.2-1.6,0.9-3,0.6-3.7c-0.9-2.1-3.8-3.6-8.7-4.4c-4.7-0.8-11.7-0.9-15.9,0.7
			c-6,2.2-11.9,5-14.5,10.4c-0.1-0.5-0.1-1.2-0.1-1.8c0.1-1.2,0.5-3.5,2.2-4.9c1.5-1.3,7.1-3.6,13-6.1c15.6-6.5,37-15.4,43-26.8
			c6.2-11.8,18-25.7,38.7-25.4c2.5,0,4.8,0.2,6.7,0.5c5.2,0.9,7.3,2.5,9.2,4c1.3,1,2.6,2,4.5,2.3c1,0.2,2.2,0.1,3.5-0.1
			c0.7-0.1,2.6-0.5,3.1-2.1c0,0,0,0,0,0.1c0,0,2.3-3.1,2.6-4.9c0.3-1.8,2.8,0.5,3.4,2.5c0.6,2,1.2,4,1.8,0.3c0.6-3.7-1.8-6-6.6-5.8
			c-3.2,0.1-5.6,1.1-6.9,1.7c-0.4-0.2-0.8-0.4-1.2-0.6c-2.5-1.4-7.6-4.2-7.8-5.5c0-0.3,0.1-0.4,0.2-0.5c0.7-0.6,2.9-1,7.1-0.3
			c1.9,0.3,3.9,0.8,5.6,1.4c0.8,0.3,1.5,0.5,2.2,0.6c5.4,0.9,8.2-2.7,11.5-7.9c2.8-4.4,4.2-4.9,7.4-6.1c0.7-0.3,1.5-0.5,2.4-0.9
			c4.1-1.6,6.9-6.6,7.3-10.4c0.2-2.8-0.8-5.2-2.8-6.4c-0.5-0.3-1.1-0.7-1.7-1.1c-2.5-1.6-5.3-3.4-9-4.1c-2.9-0.5-5.9-0.2-9.2,1
			c-5.7,2-9.6,2.8-12.8,3.4c-1.6,0.3-2.9,0.6-4.2,1c-3.4-1.5-9.2-4.8-9.1-9.5c0.2-6.6,5.4-15.2,3.5-15.5s-8,13.8-4.6,21.9
			c1.3,3.2,1.9,5.1,2.1,6.2c-0.3-0.3-0.7-0.7-1.1-1.2c-3.2-4.5-8.2-19.6-0.1-26.8c0.3-0.3,0.5-0.7,0.6-1.1c0.2-1.5,1.5-6.4,7.5-7.4
			c1.4-0.2,2.9-0.3,4.4-0.3c4.4-0.1,9.3-0.2,12-5.7c0.7-0.9,6.2-8.3,13.9-7.8c0.8,0,1.5,0.1,2.2,0.2c3.3,0.5,4.9,1.7,6.4,2.8
			c1.2,0.9,2.5,1.8,4.3,2.1c0.5,0.1,1,0.1,1.6,0.1c1.8-0.1,3.7-0.3,5.5-0.6c2.3-0.3,4.7-0.7,6.2-0.4c0.4,0.1,0.6,0.1,0.7,0.2
			c0.9,0.5,1.9,0.8,3,1c2.4,0.4,5.2,0.2,7-1c0,0.1,0,0.3,0.1,0.4c0,0.5-0.1,1.3-1,2c-0.4,0.3-1.4,1.3-1.2,2.6
			c-0.7,0.3-1.5,0.5-2.2,0.8c-1.1,0.3-2.1,0.6-3.2,0.9c-1.1,0.2-2.2,0.4-3.3,0.5c-1.1,0.1-2.3,0-3.4-0.1c1.1,0.5,2.2,0.9,3.4,1.1
			c1.2,0.2,2.4,0.2,3.6,0.1c1.2-0.1,2.4-0.3,3.5-0.6c0.9-0.3,1.8-0.6,2.7-1c0.2,0.1,0.5,0.3,0.8,0.3c1.9,0.3,6.6-1.8,10.4-5.1
			c-0.5,1.1-0.9,2.2-1.3,2.8c-0.4,0.8-0.4,1.6-0.1,2.3c0,0.1,0.1,0.1,0.1,0.1c-0.6,0.1-1.1,0.2-1.7,0.4c-1.3,0.4-2.5,1.1-3.6,2
			c-1,0.9-2,1.9-2.6,3.2c-0.4,0.6-0.6,1.2-0.8,1.8c-0.2,0.6-0.3,1.3-0.5,1.9c0.4-0.5,0.7-1.1,1.1-1.6c0.4-0.5,0.7-1,1.2-1.4l0.6-0.7
			l0.7-0.6c0.2-0.2,0.5-0.4,0.7-0.6c0.2-0.2,0.5-0.4,0.7-0.5c1-0.7,2-1.2,3.1-1.7c0.9-0.4,1.9-0.7,2.9-0.9c0.5,0.2,1.1,0.3,1.6,0.4
			c0.6,0.1,1.3,0.2,2.1,0.3c0.8,0.1,1.7,0.2,2.5,0.3c3.1,0.5,4.1,1.3,4.3,1.8l0.4,0.7c2.5,4.7,4.3,8.9,1.4,11.5
			c-2.8,2.5-2.7,5.1-2.6,7c0.1,1.7,0.1,2.4-1.6,3.4c-2.1,1.2-3.5,2.6-4.1,4c-0.5-0.1-1-0.2-1.6-0.2c-0.8,0-1.6,0-2.3,0.2
			c-1.5,0.3-2.9,1-4.1,1.9l-0.9,0.7c-0.3,0.2-0.5,0.5-0.8,0.8c-0.5,0.5-0.9,1.1-1.4,1.7c-0.4,0.6-0.7,1.2-1.1,1.8
			c-0.3,0.7-0.6,1.3-0.8,1.9l1.3-1.7c0.5-0.5,0.9-1,1.4-1.5c1-0.9,2-1.8,3.2-2.4c1.1-0.6,2.3-1,3.6-1.1c0.6-0.1,1.2-0.1,1.8,0
			c0.4,0,0.9,0.1,1.3,0.2c0,0,0,0.1,0,0.1c0.4,2.4,2.8,4.1,7,5c-1,0.2-2,0.4-2.9,0.4c-1.9,0.2-2.6,1.4-2.6,2.5
			c-0.1,3.1,5.8,7.2,10.3,8c0.6,0.1,1.1,0.1,1.6,0.1c-1.5,0.9-3.5,1.7-5.3,1.4c-0.2,0-0.4-0.1-0.6-0.1c-0.4-0.1-0.8-0.2-1.2-0.3
			c-0.9-0.1-1.6-0.1-2.3,0.2c-0.9,0.4-1.4,1.1-1.6,2c-0.5,3,4.1,7.6,9.9,8.6c1,0.2,1.9,0.2,2.9,0.2c0.6,0,1,0,1.4,0.1
			c0.2,0,0.4,0.1,0.5,0.1c-0.1,0.3-0.4,0.8-1.1,1.4c-1.2,1-3.3,1.9-5.5,1.5c-0.2,0-0.5-0.1-0.7-0.2c-0.6-0.2-1.2-0.3-1.8-0.4
			c-4-0.7-7.2,0.6-7.9,3.1c-0.5,1.7-0.2,5,7.2,8.2c5.3,2.3,6.5,4.2,6.8,5.2C479,181.2,478.7,181.9,478.3,182.6z"/>
		<path class="st1" d="M273.5,299.1c0,0-3.3-2.8-6.2-2.3c-2.9,0.5,3.5,1.5,3.2,3.4c-0.3,1.8-4.9,1.1-2.3,2.5
			c2.6,1.4,4.1,3.5,4.1,3.5S271.2,301.9,273.5,299.1z"/>
		<path class="st1" d="M245.4,306.2c0,0-4-1.5-7.1-0.1s0.9,5.8,0.9,5.8S241.9,307.4,245.4,306.2z"/>
		<path class="st1" d="M306.7,230.5c0,0,7.8-1.5,13.8-9.1c6-7.5-3.7,10.7-10.9,14.3C309.6,235.7,310.4,231.1,306.7,230.5z"/>
		<path class="st1" d="M421.9,158c0,0-2.9,0.5-2.5,3.4s-7.2,3.5-5.7,5.7s3.7,0.6,4.9-1.1C419.9,164.2,429,155.4,421.9,158z"/>
		<path class="st1" d="M227.5,306.2c0,0-7.1,9.7-2.2,18.5c0.6,1.6,2.2-8.7,9.5-10.5C242.1,312.4,231.1,301.3,227.5,306.2z"/>
		<path class="st0" d="M225.6,320.8c-1.7-6.9,3.2-13.6,3.3-13.6c0.2-0.2,0.4-0.4,0.6-0.5c0.9-0.3,2.5,0.3,3.9,1.5
			c1.6,1.3,2.4,2.9,2.2,3.6c0,0.1-0.1,0.4-0.8,0.6c0,0,0,0,0,0c-0.1,0-0.3,0.1-0.4,0.1c-0.4,0.1-0.7,0.2-1.1,0.3
			C229.2,314.3,226.9,318,225.6,320.8z"/>
		<path class="st1" d="M418.8,469.5c0,0-7.1,9.7-2.2,18.5c0.6,1.6,2.2-8.7,9.5-10.5S422.4,464.7,418.8,469.5z"/>
		<path class="st0" d="M416.9,484.2c-1.7-6.9,3.2-13.6,3.3-13.6c0.2-0.2,0.4-0.4,0.6-0.5c0.9-0.3,2.5,0.3,3.9,1.5
			c1.6,1.3,2.4,2.9,2.2,3.6c0,0.1-0.1,0.4-0.8,0.6c0,0,0,0,0,0c-0.1,0-0.3,0.1-0.4,0.1c-0.4,0.1-0.7,0.2-1.1,0.3
			C420.5,477.7,418.2,481.4,416.9,484.2z"/>
		<path class="st1" d="M455.5,471.4c0,0,6.3,10.2,16.3,9c1.7,0.1-7.3-5.3-6.2-12.7C466.7,460.1,452.3,466.2,455.5,471.4z"/>
		<path class="st0" d="M468.3,478.6c-7-1.1-11.4-8.1-11.4-8.1c-0.1-0.2-0.2-0.5-0.2-0.7c0-0.9,1.2-2.2,2.9-3.1
			c1.8-0.9,3.5-1.1,4.2-0.7c0.1,0.1,0.3,0.2,0.3,0.9c0,0,0,0,0,0c0,0.1,0,0.3,0,0.4c-0.1,0.4-0.1,0.8-0.1,1.1
			C463.7,472.8,466.2,476.4,468.3,478.6z"/>
		<path class="st1" d="M237.1,281.8c0,0-11.6-3.2-18,4.6c-1.3,1.1,8.9-1.1,13.2,5.1S242.9,283.4,237.1,281.8z"/>
		<path class="st0" d="M222.7,285.2c5.8-4,13.8-1.9,13.9-1.8c0.3,0.1,0.5,0.2,0.6,0.4c0.6,0.7,0.6,2.5,0,4.2
			c-0.7,1.9-1.8,3.2-2.5,3.4c-0.1,0-0.4,0.1-0.9-0.5c0,0,0,0,0,0c-0.1-0.1-0.2-0.2-0.3-0.3c-0.2-0.3-0.5-0.6-0.7-0.9
			C230.1,286.3,225.8,285.5,222.7,285.2z"/>
		<path class="st1" d="M259.7,319.1c0,0,7.9,9,17.6,6c1.6-0.2-8.1-3.9-8.3-11.5S255.7,314.6,259.7,319.1z"/>
		<path class="st0" d="M273.6,324c-7.1,0.2-12.6-6-12.7-6c-0.2-0.2-0.3-0.4-0.3-0.7c-0.1-0.9,0.8-2.4,2.3-3.5c1.6-1.2,3.3-1.7,4-1.4
			c0.1,0,0.4,0.1,0.5,0.9c0,0,0,0,0,0c0,0.1,0,0.3,0,0.4c0,0.4,0,0.8,0.1,1.1C268,319.1,271.2,322.1,273.6,324z"/>
		<path class="st1" d="M292.9,298.7c0,0-0.3,8.4-6.9,11.1c-1,0.6,2.6-5.8-0.6-9.9S293,294.5,292.9,298.7z"/>
		<path class="st0" d="M287.8,306.4c3.1-2.5,3.3-7.1,3.3-7.1c0-0.2,0-0.3-0.1-0.4c-0.3-0.5-1.2-0.7-2.3-0.7c-1.1,0-2,0.4-2.2,0.8
			c0,0.1-0.1,0.2,0.1,0.5c0,0,0,0,0,0c0,0.1,0.1,0.1,0.1,0.2c0.1,0.2,0.3,0.3,0.4,0.5C288.5,302.3,288.2,304.7,287.8,306.4z"/>
		<path class="st1" d="M490.4,446.1c0,0,1.9,8.2-3.7,12.5c-0.8,0.9,1-6.2-3.2-9.4C479.2,446,489.4,441.9,490.4,446.1z"/>
		<path class="st0" d="M487.5,454.8c2.4-3.2,1.4-7.7,1.4-7.8c0-0.2-0.1-0.3-0.2-0.4c-0.4-0.4-1.4-0.4-2.4-0.1
			c-1.1,0.3-1.9,0.9-1.9,1.4c0,0.1,0,0.2,0.3,0.5c0,0,0,0,0,0c0.1,0.1,0.1,0.1,0.2,0.2c0.2,0.1,0.3,0.3,0.5,0.4
			C487,450.7,487.4,453.1,487.5,454.8z"/>
		<path class="st1" d="M298.9,132.2c0.4-0.2,0.7-0.2,1.1-0.2c0.4,0,0.7,0.2,1.1,0.4c0.7,0.5,1.1,1.5,1.2,2.4
			c0.1,0.5,0.1,0.9,0.1,1.4l0,0.7l0,0.6c0,0.7,0,1.4,0.1,2.1c0.2,1.4,0.7,2.7,1,4.3c0.2,0.8,0.3,1.7,0.2,2.7
			c-0.1,0.9-0.4,1.8-0.7,2.6c-0.2,0.4-0.5,0.5-0.8,0.3c-0.3-0.2-0.3-0.6-0.2-1l0,0c0.3-0.6,0.4-1.3,0.5-2c0.1-0.7,0-1.3-0.2-2
			c-0.3-1.4-0.9-2.8-1.1-4.4c-0.1-0.8-0.2-1.7-0.1-2.5l0-1.1c0-0.3,0-0.7-0.1-1c-0.1-0.6-0.3-1.2-0.7-1.5c-0.2-0.1-0.4-0.2-0.6-0.3
			c-0.2,0-0.5,0-0.7,0l0,0c-0.3,0.1-0.6-0.2-0.6-0.6C298.4,132.6,298.6,132.3,298.9,132.2z"/>
		<path class="st0" d="M281.1,419c-1.7-6.9,3.2-13.6,3.3-13.6c0.2-0.2,0.4-0.4,0.6-0.5c0.9-0.3,2.5,0.3,3.9,1.5
			c1.6,1.3,2.4,2.9,2.2,3.6c0,0.1-0.1,0.4-0.8,0.6c0,0,0,0,0,0c-0.1,0-0.3,0.1-0.4,0.1c-0.4,0.1-0.7,0.2-1.1,0.3
			C284.8,412.5,282.5,416.2,281.1,419z"/>
		<path class="st1" d="M314,417.5c0,0,5.1,10.9,15.2,10.7c1.6,0.2-6.7-6.1-4.7-13.3S311.5,412.1,314,417.5z"/>
		<path class="st0" d="M326,426.2c-6.8-1.8-10.4-9.3-10.4-9.4c-0.1-0.3-0.2-0.5-0.1-0.7c0.1-0.9,1.5-2.1,3.2-2.8
			c1.9-0.7,3.6-0.7,4.2-0.3c0.1,0.1,0.3,0.2,0.2,1c0,0,0,0,0,0c0,0.1,0,0.3-0.1,0.4c-0.1,0.4-0.2,0.7-0.2,1.1
			C322,419.9,324.2,423.7,326,426.2z"/>
	</g>
</g>
</svg>
