<?xml version="1.0" encoding="UTF-8" standalone="no"?>
<svg
   xmlns:dc="http://purl.org/dc/elements/1.1/"
   xmlns:cc="http://creativecommons.org/ns#"
   xmlns:rdf="http://www.w3.org/1999/02/22-rdf-syntax-ns#"
   xmlns:svg="http://www.w3.org/2000/svg"
   xmlns="http://www.w3.org/2000/svg"
   xmlns:sodipodi="http://sodipodi.sourceforge.net/DTD/sodipodi-0.dtd"
   xmlns:inkscape="http://www.inkscape.org/namespaces/inkscape"
   height="600"
   width="900"
   xml:space="preserve"
   viewBox="0 0 900.00002 600.00001"
   y="0px"
   x="0px"
   sodipodi:version="0.32"
   sodipodi:docname="Flag_of_Alsace.svg"
   inkscape:version="1.0 (4035a4fb49, 2020-05-01)"
   id="svg1901"
   version="1.1"><metadata
   id="metadata47"><rdf:RDF><cc:Work
       rdf:about=""><dc:format>image/svg+xml</dc:format><dc:type
         rdf:resource="http://purl.org/dc/dcmitype/StillImage" /><dc:title></dc:title></cc:Work></rdf:RDF></metadata><defs
   id="defs45">
	
	
	
	
	
	
	
	
</defs>
<style
   id="style2"
   type="text/css">
	.st0{fill:#FFFFFF;}
	.st1{fill:#ED2939;}
	.st2{fill:#FFD203;}
</style>
<sodipodi:namedview
   inkscape:window-maximized="1"
   showgrid="false"
   inkscape:document-rotation="0"
   pagecolor="#ffffff"
   objecttolerance="10.0"
   inkscape:zoom="0.86"
   inkscape:window-y="-8"
   inkscape:window-x="-8"
   inkscape:window-width="1366"
   inkscape:window-height="705"
   inkscape:pageshadow="2"
   inkscape:pageopacity="0.0"
   inkscape:cy="300"
   inkscape:cx="450"
   inkscape:current-layer="svg1901"
   id="base"
   guidetolerance="10.0"
   gridtolerance="10.0"
   borderopacity="1.0"
   bordercolor="#666666">
	</sodipodi:namedview>
<g
   transform="translate(2.515625e-5)"
   id="g34">
		
		
		
		
		
		
		
		
		
		
		
		
		
		
	</g>
<g
   transform="scale(1.2185152)"
   id="g503"><rect
     y="0"
     x="0"
     style="fill:#ed2939;fill-opacity:1;stroke-width:1"
     height="492.40256"
     width="738.60382"
     class="st0"
     id="rect4367" /><g
     id="g488"
     style="fill:#ffd203;fill-opacity:1;stroke:none"><path
       id="path4365"
       sodipodi:nodetypes="cccccccccccscscccccccccccccccccsccccccccc"
       class="st2"
       d="m 69.200025,344.6 c 0.5,0.3 1.3,0.6 2.4,0.9 3.6,0.3 6.2,-0.9 7.7,-3.6 l 0.2,-0.3 c 0.6,-1.1 0.9,-2.5 1,-4.4 0.1,-1.1 -0.1,-2.5 -0.6,-4 v -0.1 h 0.1 c 0.8,1 1.8,1.8 2.9,2.4 l 0.2,0.1 c 0.7,0.4 1.5,0.8 2.4,1.1 3.9,0.8 6.7,-0.4 8.4,-3.4 0.4,-0.8 0.8,-1.7 0.9,-2.8 0.2,-3.4 -1,-5.8 -3.5,-7.3 -3.2,-1.9 -6.5,-1.3 -9.9,1.5 h -0.1 c 11.2,-15.2 25.800005,1.4 22.900005,6.7 7.8,-5.3 15.1,-0.5 14.9,7 -2.5,8 -9.2,6.8 -15.2,4.7 8.2,8 17.5,28.6 16.2,36.9 l 14.6,-56.6 -79.400005,-46.7 -40.7,42.5 c 6.5,-5.3 27.7,-8.8 38.8,-5.6 -4.8,-4.2 -9.1,-9.3 -3.5,-15.5 6.3,-3.8 14.2,0 13.5,9.4 3,-5.1 24.8,-0.8 17.2,16.6 l -0.1,0.2 h -0.1 c 0.8,-4.4 -0.5,-7.4 -3.6,-9.3 -1,-0.5 -1.8,-0.8 -2.4,-0.9 -3.5,-0.2 -6.1,1 -7.6,3.7 -0.5,0.8 -0.8,1.7 -1,2.7 -0.3,3.4 1.2,6 4.3,7.8 l 0.4,0.2 c 1.1,0.6 2.2,1 3.4,1.2 h 0.1 l -1.9,0.5 c -2.8,1.2 -4.6,2.5 -5.5,4.1 -0.4,0.8 -0.7,1.5 -0.9,2.3 -0.5,3.7 0.7,6.4 3.5,8"
       style="fill:#ffd203;fill-opacity:1;stroke:none" /><path
       id="path1887"
       sodipodi:nodetypes="cccccccccccscscccccccccccccccccsccccccccc"
       class="st2"
       d="m 117.40003,455.1 c 0.5,0.3 1.3,0.6 2.4,0.9 3.6,0.3 6.2,-0.9 7.7,-3.6 l 0.2,-0.3 c 0.6,-1.1 0.9,-2.5 1,-4.4 0.1,-1.1 -0.1,-2.5 -0.6,-4 v -0.1 h 0.1 c 0.8,1 1.8,1.8 2.9,2.4 l 0.2,0.1 c 0.7,0.4 1.5,0.8 2.4,1.1 3.9,0.8 6.7,-0.4 8.4,-3.4 0.4,-0.8 0.8,-1.7 0.9,-2.8 0.2,-3.4 -1,-5.8 -3.5,-7.3 -3.2,-1.9 -6.5,-1.3 -9.9,1.5 h -0.1 c 11.2,-15.2 25.8,1.4 22.9,6.7 7.8,-5.3 15.1,-0.5 14.9,7 -2.5,8 -9.2,6.8 -15.2,4.7 8.2,8 17.5,28.6 16.2,36.9 l 14.6,-56.6 -79.4,-46.7 -40.700005,42.5 c 6.5,-5.3 27.7,-8.8 38.800005,-5.6 -4.800005,-4.2 -9.100005,-9.3 -3.500005,-15.5 6.300005,-3.8 14.200005,0 13.500005,9.4 3,-5.1 24.8,-0.8 17.2,16.6 l -0.1,0.2 h -0.1 c 0.7,-4.4 -0.5,-7.4 -3.6,-9.3 -1,-0.5 -1.8,-0.8 -2.4,-0.9 -3.5,-0.2 -6.1,1 -7.6,3.7 -0.5,0.8 -0.8,1.7 -1,2.7 -0.3,3.4 1.2,6 4.3,7.8 l 0.4,0.2 c 1.1,0.6 2.2,1 3.4,1.2 h 0.1 l -1.9,0.5 c -2.8,1.2 -4.6,2.5 -5.5,4.1 -0.4,0.8 -0.7,1.5 -0.9,2.3 -0.5,3.7 0.7,6.4 3.5,8"
       style="fill:#ffd203;fill-opacity:1;stroke:none" /><path
       id="path1889"
       sodipodi:nodetypes="cccccccccccscscccccccccccccccccsccccccccc"
       class="st2"
       d="m 235.00003,440.7 c 0.5,0.3 1.3,0.6 2.4,0.9 3.6,0.3 6.2,-0.9 7.7,-3.6 l 0.2,-0.3 c 0.6,-1.1 0.9,-2.5 1,-4.4 0.1,-1.1 -0.1,-2.5 -0.6,-4 v -0.1 h 0.1 c 0.8,1 1.8,1.8 2.9,2.4 l 0.2,0.1 c 0.7,0.4 1.5,0.8 2.4,1.1 3.9,0.8 6.7,-0.4 8.4,-3.4 0.4,-0.8 0.8,-1.7 0.9,-2.8 0.2,-3.4 -1,-5.8 -3.5,-7.3 -3.2,-1.9 -6.5,-1.3 -9.9,1.5 h -0.1 c 11.2,-15.2 25.8,1.4 22.9,6.7 7.8,-5.3 15.1,-0.5 14.9,7 -2.5,8 -9.2,6.8 -15.2,4.7 8.2,8 17.5,28.6 16.2,36.9 l 14.6,-56.6 -79.4,-46.7 -40.7,42.5 c 6.5,-5.3 27.7,-8.8 38.8,-5.6 -4.8,-4.2 -9.1,-9.3 -3.5,-15.5 6.4,-3.8 14.2,0 13.5,9.4 3,-5.1 24.8,-0.8 17.2,16.6 l -0.1,0.2 h -0.1 c 0.8,-4.4 -0.5,-7.4 -3.6,-9.3 -1,-0.5 -1.8,-0.8 -2.4,-0.9 -3.5,-0.2 -6.1,1 -7.6,3.7 -0.5,0.8 -0.8,1.7 -1,2.7 -0.3,3.4 1.2,6 4.3,7.8 l 0.4,0.2 c 1.1,0.6 2.2,1 3.4,1.2 h 0.1 l -1.9,0.5 c -2.8,1.2 -4.6,2.5 -5.5,4.1 -0.4,0.8 -0.7,1.5 -0.9,2.3 -0.5,3.7 0.7,6.4 3.5,8"
       style="fill:#ffd203;fill-opacity:1;stroke:none" /></g><g
     id="g483"
     style="fill:#ffd203;fill-opacity:1;stroke:none"><path
       id="path1891"
       sodipodi:nodetypes="cccccccccccscscccccccccccccccccsccccccccc"
       class="st2"
       d="m 499.70003,59.399998 c -0.5,-0.3 -1.3,-0.6 -2.4,-0.9 -3.6,-0.2 -6.2,1 -7.7,3.6 l -0.2,0.3 c -0.6,1.1 -0.9,2.5 -1,4.4 -0.1,1.1 0.1,2.5 0.7,4 v 0.1 h -0.1 c -0.8,-1 -1.8,-1.7 -2.9,-2.4 l -0.2,-0.1 c -0.7,-0.4 -1.5,-0.7 -2.4,-1.1 -3.9,-0.7 -6.7,0.4 -8.4,3.5 -0.4,0.8 -0.7,1.7 -0.9,2.8 -0.2,3.4 1,5.8 3.5,7.2 3.2,1.8 6.5,1.3 9.9,-1.6 h 0.1 c -11,15.3 -25.8,-1.3 -22.9,-6.5 -7.8,5.4 -15.1,0.6 -14.9,-6.9 2.5,-8 9.1,-6.8 15.1,-4.8 -8.3,-8 -17.7,-28.4 -16.4,-36.8 l -14.2,56.7 79.8,46.200002 40.4,-42.800002 c -6.5,5.3 -27.7,9 -38.8,5.9 4.8,4.1 9.2,9.3 3.6,15.500002 -6.3,3.9 -14.2,0.1 -13.6,-9.300002 -3,5.200002 -24.8,0.9 -17.4,-16.4 l 0.1,-0.2 h 0.1 c -0.7,4.4 0.5,7.4 3.7,9.3 1,0.5 1.8,0.7 2.4,0.9 3.5,0.2 6.1,-1.1 7.6,-3.8 0.4,-0.8 0.8,-1.7 1,-2.7 0.2,-3.4 -1.2,-5.9 -4.3,-7.7 l -0.4,-0.2 c -1.1,-0.6 -2.2,-1 -3.4,-1.2 h -0.1 l 1.9,-0.5 c 2.8,-1.2 4.6,-2.6 5.5,-4.1 0.4,-0.8 0.7,-1.5 0.9,-2.3 0.3,-3.9 -0.9,-6.5 -3.7,-8.1"
       style="fill:#ffd203;fill-opacity:1;stroke:none" /><path
       id="path1893"
       sodipodi:nodetypes="cccccccccccscscccccccccccccccccsccccccccc"
       class="st2"
       d="m 619.00003,43.699998 c -0.5,-0.3 -1.3,-0.6 -2.4,-0.9 -3.6,-0.2 -6.2,1 -7.7,3.6 l -0.2,0.3 c -0.6,1.1 -0.9,2.5 -1,4.4 -0.1,1.1 0.1,2.5 0.7,4 v 0.1 h -0.1 c -0.8,-1 -1.8,-1.7 -2.9,-2.4 l -0.2,-0.1 c -0.7,-0.4 -1.5,-0.7 -2.4,-1.1 -3.9,-0.7 -6.7,0.4 -8.4,3.5 -0.4,0.8 -0.7,1.7 -0.9,2.8 -0.2,3.4 1,5.8 3.5,7.2 3.2,1.8 6.5,1.3 9.9,-1.6 h 0.1 c -11,15.3 -25.8,-1.3 -22.9,-6.5 -7.8,5.4 -15.1,0.6 -14.9,-6.9 2.5,-8 9.1,-6.8 15.1,-4.8 -8.3,-8 -17.7,-28.4 -16.4,-36.7999996 l -14.2,56.6999996 79.8,46.200002 40.4,-42.800002 c -6.5,5.3 -27.7,9 -38.8,5.9 4.8,4.1 9.2,9.3 3.6,15.5 -6.3,3.9 -14.2,0.1 -13.6,-9.3 -3,5.2 -24.8,0.9 -17.4,-16.4 l 0.1,-0.2 h 0.1 c -0.7,4.4 0.5,7.4 3.7,9.3 1,0.5 1.8,0.7 2.4,0.9 3.5,0.2 6.1,-1.1 7.6,-3.8 0.4,-0.8 0.8,-1.7 1,-2.7 0.2,-3.4 -1.2,-6 -4.3,-7.7 l -0.4,-0.2 c -1.1,-0.6 -2.2,-1 -3.4,-1.2 h -0.1 l 1.9,-0.5 c 2.8,-1.2 4.6,-2.6 5.5,-4.1 0.4,-0.8 0.7,-1.5 0.9,-2.3 0.3,-3.8 -0.9,-6.5 -3.7,-8.1"
       style="fill:#ffd203;fill-opacity:1;stroke:none" /><path
       id="path1895"
       sodipodi:nodetypes="cccccccccccscscccccccccccccccccsccccccccc"
       class="st2"
       d="m 666.70003,153.4 c -0.5,-0.3 -1.3,-0.6 -2.4,-0.9 -3.6,-0.2 -6.2,1 -7.7,3.6 l -0.2,0.3 c -0.6,1.1 -0.9,2.5 -1,4.4 -0.1,1.1 0.1,2.5 0.7,4 v 0.1 h -0.1 c -0.8,-1 -1.8,-1.7 -2.9,-2.4 l -0.2,-0.1 c -0.7,-0.4 -1.5,-0.7 -2.4,-1.1 -3.9,-0.7 -6.7,0.4 -8.4,3.5 -0.4,0.8 -0.7,1.7 -0.9,2.8 -0.2,3.4 1,5.8 3.5,7.2 3.2,1.8 6.5,1.3 9.9,-1.6 h 0.1 c -11,15.3 -25.8,-1.3 -22.9,-6.5 -7.8,5.4 -15,0.6 -14.9,-6.9 2.5,-8 9.1,-6.8 15.1,-4.8 -8.3,-8 -17.7,-28.4 -16.4,-36.8 l -14.2,56.7 79.8,46.2 40.4,-42.8 c -6.5,5.3 -27.7,9 -38.8,5.9 4.8,4.1 9.2,9.3 3.6,15.5 -6.3,3.9 -14.2,0.1 -13.6,-9.3 -3,5.2 -24.8,0.9 -17.3,-16.4 l 0.1,-0.2 h 0.1 c -0.7,4.4 0.5,7.4 3.7,9.2 1,0.5 1.8,0.7 2.4,0.9 3.5,0.2 6.1,-1.1 7.6,-3.8 0.4,-0.8 0.8,-1.7 1,-2.7 0.2,-3.4 -1.2,-5.9 -4.3,-7.7 l -0.4,-0.2 c -1.1,-0.6 -2.2,-1 -3.4,-1.2 h -0.1 l 1.9,-0.5 c 2.8,-1.2 4.6,-2.6 5.5,-4.1 0.4,-0.8 0.7,-1.5 0.9,-2.3 0.3,-3.7 -1,-6.4 -3.8,-8"
       style="fill:#ffd203;fill-opacity:1;stroke:none" /></g><g
     id="g478"
     style="fill:#ffffff;stroke:none"><path
       sodipodi:nodetypes="ccccccc"
       id="rect4367-7"
       d="m 0,0 v 108.79931 l 664.30261,383.60325 h 74.30123 v -100.102 L 62.299121,0 C 41.5328,0 20.76638,0 0,0 Z"
       style="fill:#ffffff;stroke:none;stroke-width:1" /><path
       d="m 87.10112,0 375.2265,216.61133 0.01,-0.0762 254.9082,147.1543 0.016,-0.0234 21.3418,12.32031 v -39.4707 c -0.5628,0.10512 -1.1208,0.17278 -1.6719,0.20508 l 0.049,-0.0664 c -2.1689,0.16459 -4.2361,-0.24161 -6.1601,-1.04883 -0.2796,-0.12113 -0.5571,-0.24673 -0.8301,-0.38476 -0.084,-0.0412 -0.1668,-0.0842 -0.25,-0.12696 -8.8609,-4.67618 -14.125,-17.98401 -10.3692,-24.05664 -0.7241,4.49805 0.1374,8.01856 2.5899,10.46289 0.4098,0.38489 0.8753,0.73154 1.3672,1.06055 0.3117,0.22297 0.6351,0.43826 0.9824,0.63672 1.3,0.6 2.3992,0.99922 3.1992,1.19922 4.7,0.3 8.1012,-1.29844 10.2012,-4.89844 0.3676,-0.6739 0.6525,-1.39372 0.8926,-2.16601 v -5.80469 c -0.7736,-2.49832 -2.5335,-4.554 -5.293,-6.13086 l -0.5,-0.29883 c -1.5,-0.9 -2.9996,-1.40116 -4.5996,-1.70117 h -0.1035 l 2.5,-0.69922 c 3.7,-1.5 6.1007,-3.40039 7.3007,-5.40039 0.2601,-0.52018 0.4896,-1.06528 0.6954,-1.61133 v -7.11133 c -0.6703,-1.92464 -1.8993,-3.48035 -3.6954,-4.67773 l -1.3034,-0.79885 c -0.7,-0.2 -1.5,-0.50077 -2.5,-0.80078 -0.6125,-0.05 -1.2018,-0.069 -1.7676,-0.0566 -0.018,3.8e-4 -0.033,0.003 -0.051,0.004 -0.2545,0.005 -0.4892,0.0356 -0.7344,0.0527 -0.233,0.0181 -0.4727,0.0272 -0.6972,0.0566 -3.2394,0.3985 -5.6143,1.95284 -7.1524,4.64453 l -0.2012,0.40039 c -0.8,1.4 -1.1988,3.40039 -1.2988,5.90039 -0.2,1.5 0,3.30039 0.7988,5.40039 v 0.0957 c -1.0996,-1.29897 -2.3992,-2.29776 -3.8984,-3.19727 l -0.1992,-0.0996 c -0.9,-0.6 -2.0008,-1 -3.3008,-1.5 -0.9821,-0.19258 -1.912,-0.29042 -2.791,-0.29687 -3.7361,-0.0579 -6.556,1.55548 -8.5117,4.89648 -0.6,1 -1.0008,2.30117 -1.3008,3.70117 -0.3,4.5 1.3016,7.79921 4.6016,9.69922 0.2328,0.13852 0.4666,0.26392 0.7011,0.38281 0.5014,0.24157 1.007,0.43722 1.5157,0.58985 3.5795,1.20245 7.3321,0.19721 11.0859,-2.97266 v 0.0996 c -2.1796,4.50132 -9.7425,6.92456 -17.0371,6.18555 -0.1704,-0.0177 -0.3398,-0.0394 -0.5098,-0.0606 -0.3436,-0.0419 -0.6861,-0.0941 -1.0273,-0.15039 -0.282,-0.0473 -0.5642,-0.0951 -0.8438,-0.15234 -0.1947,-0.0393 -0.3868,-0.0867 -0.5801,-0.13086 -1.2644,-0.29272 -2.4976,-0.6828 -3.664,-1.19141 -0.01,-0.004 -0.018,-0.008 -0.027,-0.0117 -5.1933,-2.27432 -9.0956,-6.75376 -8.9082,-13.98828 0,0 0,0 0,0 -0.4413,0.27345 -0.8808,0.50941 -1.3184,0.73242 -0.1172,0.0594 -0.2347,0.1218 -0.3515,0.17774 -0.3932,0.18902 -0.7844,0.35575 -1.1739,0.50586 -0.1441,0.0554 -0.288,0.10596 -0.4316,0.15625 -0.384,0.13465 -0.7669,0.25888 -1.1465,0.35742 -0.1099,0.0286 -0.2186,0.0486 -0.3281,0.0742 -0.3287,0.0768 -0.6555,0.14056 -0.9805,0.1914 -0.1192,0.0188 -0.2387,0.0412 -0.3574,0.0566 -0.3941,0.0506 -0.784,0.0815 -1.1719,0.0957 -0.093,0.004 -0.1865,0.006 -0.2793,0.008 -0.422,0.006 -0.8422,-0.003 -1.2558,-0.0371 -0.015,-0.001 -0.03,-0.003 -0.045,-0.004 -0.8719,-0.0759 -1.7233,-0.24467 -2.5527,-0.48633 -0.047,-0.0135 -0.096,-0.0231 -0.1426,-0.0371 -0.4336,-0.13134 -0.8609,-0.28289 -1.2812,-0.45508 -9.7852,-4.00902 -15.8246,-18.68242 -11.584,-24.93555 -1,5.80001 0.6008,10.00039 4.8008,12.40039 1.3,0.6 2.3992,0.99922 3.1992,1.19922 4.7,0.3 8.1012,-1.29844 10.2012,-4.89844 0.6,-1.1 0.9988,-2.30117 1.2988,-3.70117 0.4,-4.5 -1.4992,-8.00039 -5.6992,-10.40039 l -0.5,-0.29883 c -1.5,-0.9 -2.9996,-1.40116 -4.5996,-1.70117 h -0.1037 l 2.5,-0.69922 c 3.7,-1.5 6.1008,-3.40039 7.3008,-5.40039 0.5,-1 0.8992,-2.09961 1.1992,-3.09961 0.5,-4.7 -0.8992,-8.10078 -4.1992,-10.30078 l -1.3008,-0.79884 c -0.7,-0.2 -1.5,-0.50077 -2.5,-0.80078 -4.9,-0.39999 -8.2988,1.20117 -10.2988,4.70117 l -0.2012,0.39844 c -0.8,1.4 -1.1988,3.40039 -1.2988,5.90039 -0.2,1.5 0,3.30039 0.7988,5.40039 v 0.0996 h -0.1016 c -1.1,-1.3 -2.4004,-2.29922 -3.9004,-3.19922 l -0.1992,-0.0996 c -0.9,-0.6 -2.0008,-1 -3.3008,-1.5 -5.1,-1 -8.7992,0.4996 -11.1992,4.59961 -0.6,0.99999 -1.0008,2.29922 -1.3008,3.69922 -0.3,4.5 1.3017,7.80117 4.6016,9.70117 4.2001,2.5 8.6992,1.8 13.1992,-2 h 0.1016 v 0.0996 c -4.6,9.5 -33.1992,9.8 -32.6992,-9.5 -16.4,10.1 -30.4001,-14.89961 -24.5,-23.59961 -1,5.8 0.5988,9.99845 4.7988,12.39844 1.3,0.60001 2.4012,1.00117 3.2012,1.20117 4.7,0.3 8.0992,-1.30039 10.1992,-4.90039 0.6,-1.1 1.0008,-2.29922 1.3008,-3.69922 0.4,-4.4 -1.5012,-7.90078 -5.7012,-10.30078 l -0.5,-0.30077 c -1.5,-0.89999 -2.9996,-1.39922 -4.5996,-1.69922 h -0.1016 l 2.5,-0.69922 c 3.7,-1.49999 6.1008,-3.40039 7.3008,-5.40039 0.5,-1 0.8992,-2.09961 1.1992,-3.09961 0.5,-4.8 -1,-8.29999 -4.5,-10.5 l -0.9004,-0.5 c -0.7,-0.3 -1.5992,-0.60039 -2.6992,-0.90039 -4.9,-0.4 -8.3008,1.19922 -10.3008,4.69922 l -0.1992,0.40039 c -0.8,1.4 -1.2008,3.40039 -1.3008,5.90039 -0.2,1.5 8e-4,3.30039 0.8008,5.40039 v 0.0996 h -0.1 c -1.1001,-1.3 -2.4004,-2.30117 -3.9004,-3.20117 l -0.2012,-0.0996 c -0.7999,-0.6 -1.8992,-1 -3.1992,-1.5 -5.1,-1 -8.7991,0.49961 -11.1992,4.59961 -0.5999,1 -1.0008,2.30117 -1.3008,3.70117 -0.3,4.5 1.2996,7.79922 4.5996,9.69922 4.2,2.5 8.7008,1.8 13.2012,-2 h 0.1 v 0.0996 c -4.6002,9.5 -33.2012,9.8 -32.7012,-9.5 -16.4,10.1 -30.4,-14.8996 -24.5,-23.59961 -1,5.8 0.6008,10.00039 4.8008,12.40039 1.3,0.6 2.3992,0.99922 3.1992,1.19922 4.7,0.3 8.1012,-1.29844 10.2012,-4.89844 0.6001,-1.1 0.9988,-2.30117 1.2988,-3.70117 0.4,-4.4 -1.4992,-7.89883 -5.6992,-10.29883 l -0.5,-0.30078 c -1.5,-0.9 -2.9995,-1.39922 -4.5996,-1.69922 h -0.1 l 2.5,-0.70117 c 3.7001,-1.5 6.0988,-3.40039 7.2988,-5.40039 0.5,-1 0.9013,-2.0996 1.2012,-3.09961 0.6,-5 -1.0012,-8.49922 -4.7012,-10.69922 l -0.2984,-0.20117 c 0.026,0 0.044,0.0156 0.068,0.0254 l -0.6778,-0.39648 c -0.6012,-0.23786 -1.3235,-0.46091 -2.1933,-0.72852 -4.9,-0.4 -8.3008,1.20117 -10.3008,4.70117 l -0.1992,0.39844 c -0.8,1.4 -1.2008,3.4004 -1.3008,5.90039 -0.2,1.5 8e-4,3.30039 0.8008,5.40039 v 0.0996 h -0.1016 c -1.1,-1.3 -2.3984,-2.29922 -3.8984,-3.19922 l -0.2012,-0.0996 c -0.8,-0.6 -1.8992,-1 -3.1992,-1.5 -5.1,-1 -8.8011,0.49961 -11.2012,4.59961 -0.6,1 -0.9988,2.29922 -1.2988,3.69922 -0.3,4.5 1.2996,7.80117 4.5996,9.70117 4.2,2.5 8.6993,1.8 13.1992,-2 h 0.1016 v 0.0996 c -4.6,9.40001 -33.1996,9.79961 -32.5996,-9.40039 -16.3,10.2 -30.3004,-14.8 -24.4004,-23.5 -1,5.8 0.6008,10.00039 4.8008,12.40039 1.3,0.6 2.3992,0.99922 3.1992,1.19922 4.7,0.3 8.0992,-1.30039 10.1992,-4.90039 0.6,-1.1 1.0008,-2.29922 1.3008,-3.69922 0.4,-4.4 -1.499,-7.90078 -5.6992,-10.30078 l -0.5,-0.29883 c -1.5,-0.9 -3.0016,-1.40117 -4.6016,-1.70117 h -0.1 l 2.5,-0.69922 c 3.7,-1.5 6.0988,-3.40039 7.2988,-5.40039 0.5,-1 0.9012,-2.09961 1.2012,-3.09961 0.4999,-4.99935 -1.0002,-8.6007 -4.6992,-10.80078 l 0.061,-0.0117 c -0.3685,-0.13416 -0.066,-0.0212 -0.2832,-0.0996 -0.7018,-0.36294 -1.7098,-0.72484 -2.9805,-1.08789 -0.6118,-0.0499 -1.2005,-0.0688 -1.7656,-0.0566 v 0 c -3.9596,0.0865 -6.7796,1.69388 -8.5293,4.75586 l -0.2012,0.40039 c -0.8,1.4 -1.1988,3.40039 -1.2988,5.90039 -0.2,1.5 0,3.30039 0.7988,5.40039 v 0.0996 h -0.1 c -1.1,-1.3 -2.4004,-2.30117 -3.9004,-3.20117 l -0.2004,-0.0996 c -0.8,-0.6 -1.9012,-1 -3.2012,-1.5 -5.1,-1 -8.7992,0.49961 -11.1992,4.59961 -0.6,1 -1.0008,2.30116 -1.3008,3.70117 -0.3,4.5 1.3016,7.79922 4.6016,9.69922 4.2,2.5 8.6992,1.8 13.1992,-2 h 0.1 v 0.0996 c -2.2936,4.73678 -10.5503,7.16915 -18.1816,6.04101 v -0.0195 c -2.0829,-0.31608 -4.1192,-0.88184 -5.9707,-1.75781 -0.2441,-0.1113 -0.4828,-0.23026 -0.7207,-0.35156 -0.027,-0.0141 -0.055,-0.0248 -0.082,-0.0391 -0.6626,-0.34219 -1.3022,-0.72045 -1.9063,-1.14258 v -0.0684 c -3.4939,-2.55151 -5.8299,-6.51068 -5.6543,-12.16016 -16.3,10.1 -30.3004,-14.8996 -24.4004,-23.59961 -1,5.80001 0.6008,10.00039 4.8008,12.40039 1.3,0.6 2.3992,0.99922 3.1992,1.19922 4.7,0.3 8.1012,-1.29843 10.2012,-4.89843 0.6,-1.1 0.9988,-2.30118 1.2988,-3.70118 0.4,-4.5 -1.4992,-8.00039 -5.6992,-10.40039 l -0.5,-0.29883 c -1.5,-0.9 -2.9996,-1.40115 -4.5996,-1.70117 h -0.1016 l 2.5,-0.69922 c 3.7,-1.5 6.1008,-3.40039 7.3008,-5.40039 0.5,-1 0.8992,-2.09961 1.1992,-3.09961 0.5,-4.7 -0.8992,-8.10077 -4.1992,-10.30078 l -1.3008,-0.79883 c -0.7,-0.2 -1.5,-0.50077 -2.5,-0.80078 -4.9,-0.39999 -8.2988,1.20118 -10.2988,4.70118 l -0.2012,0.39843 c -0.8,1.4 -1.1988,3.40039 -1.2988,5.90039 -0.2,1.5 0,3.30039 0.7988,5.40039 v 0.0996 h -0.1015 c -1.1,-1.3 -2.4004,-2.29921 -3.9004,-3.19921 l -0.1992,-0.0996 c -0.9,-0.6 -2.0008,-1 -3.3008,-1.5 -5.1,-1 -8.7992,0.49959 -11.1992,4.5996 -0.6,0.99999 -1.0008,2.29922 -1.3008,3.69922 -0.3,4.5 1.3017,7.80118 4.6015,9.70118 4.2002,2.5 8.6993,1.8 13.1993,-2 h 0.1015 v 0.0996 c -4.6,9.5 -33.1992,9.8 -32.6992,-9.5 -16.4,10.1 -30.4001,-14.89961 -24.5,-23.59961 -1,5.8 0.5988,9.99844 4.7988,12.39843 1.3,0.60001 2.4012,1.00118 3.2012,1.20118 4.7,0.3 8.0992,-1.30039 10.1992,-4.90039 0.6,-1.1 1.0008,-2.29922 1.3008,-3.69922 0.4,-4.4 -1.5012,-7.90078 -5.7012,-10.30078 l -0.5,-0.30079 c -1.5,-0.89999 -2.9996,-1.39921 -4.5996,-1.69921 h -0.1015 l 2.5,-0.69922 c 3.7,-1.500009 6.1008,-3.400398 7.3007,-5.400398 0.5,-1 0.8993,-2.099609 1.1993,-3.099609 0.5,-4.8 -1,-8.3 -4.5,-10.5 l -0.9004,-0.5 c -0.7,-0.3 -1.5992,-0.600391 -2.6992,-0.900391 -4.9,-0.4 -8.3008,1.199221 -10.3008,4.699219 l -0.1992,0.400391 c -0.8,1.4 -1.2008,3.40039 -1.3008,5.90039 -0.2,1.5 8e-4,3.300391 0.8008,5.400391 v 0.09961 h -0.1 c -1.0999,-1.3 -2.4003,-2.301172 -3.9003,-3.201172 l -0.2012,-0.09961 c -0.7999,-0.599998 -1.8992,-1 -3.1992,-1.5 -5.1,-0.999999 -8.799,0.499613 -11.1993,4.599609 -0.5996,1 -1.0007,2.301172 -1.3007,3.701172 -0.3,4.500008 1.2996,7.799218 4.5996,9.699218 4.2,2.5 8.7008,1.8 13.2011,-2 h 0.1 v 0.0996 c -4.6002,9.5 -33.2012,9.80001 -32.7012,-9.499999 -16.4,10.100009 -30.4,-14.899607 -24.5,-23.599609 -1,5.800002 0.6008,10.000389 4.8008,12.400391 1.3,0.6 2.3992,0.999223 3.1992,1.199218 4.7,0.300001 8.1012,-1.298437 10.2012,-4.898437 0.6001,-1.1 0.9988,-2.301172 1.2988,-3.701172 0.4,-4.399999 -1.4992,-7.898828 -5.6992,-10.298828 l -0.5,-0.300781 c -1.5,-0.9 -2.9995,-1.399219 -4.5996,-1.699219 h -0.1 l 2.5,-0.701172 c 3.7002,-1.499999 6.0989,-3.400388 7.2989,-5.400391 0.5,-1 0.9013,-2.099598 1.2011,-3.099609 0.6002,-5 -1.0011,-8.499219 -4.7011,-10.699219 l -0.2989,-0.201172 c 0.026,0 0.046,0.01559 0.07,0.02539 l -0.6778,-0.396484 c -0.6012,-0.23786 -1.3235,-0.460906 -2.1933,-0.728516 -4.9,-0.4 -8.3008,1.201172 -10.3008,4.701172 l -0.1992,0.398437 c -0.8,1.4 -1.2008,3.400401 -1.3008,5.900391 -0.2,1.499999 8e-4,3.300391 0.8008,5.400391 v 0.09961 h -0.1016 c -1.1,-1.299998 -2.3984,-2.299219 -3.8984,-3.199219 l -0.2012,-0.09961 c -0.8,-0.6 -1.8992,-1 -3.1992,-1.5 -5.1,-1.000001 -8.8011,0.499609 -11.2012,4.599609 -0.6,1 -0.9988,2.299219 -1.2988,3.699219 -0.3,4.500001 1.2996,7.801172 4.5996,9.701172 4.2,2.5 8.6993,1.8 13.1992,-2 h 0.1016 v 0.09961 c -4.6,9.4 -33.1996,9.799608 -32.5996,-9.40039 -16.3,10.199998 -30.3004,-14.8 -24.4004,-23.5 -1,5.8 0.6008,10.00039 4.8007,12.40039 1.3002,0.6 2.3993,0.999219 3.1993,1.199219 4.7,0.3 8.0992,-1.300391 10.1992,-4.900391 0.6,-1.1 1.0008,-2.299218 1.3008,-3.699218 0.4,-4.4 -1.4991,-7.900779 -5.6993,-10.300782 l -0.5,-0.298828 c -1.5,-0.9 -3.0015,-1.401172 -4.6015,-1.701172 h -0.1016 l 2.5,-0.699218 c 3.7,-1.5 6.0989,-3.400391 7.2989,-5.400391 0.5,-1 0.9011,-2.099609 1.2011,-3.099609 0.4999,-4.99935 -1.0002,-8.600701 -4.6992,-10.800782 l 0.061,-0.01172 c -0.3685,-0.13416 -0.066,-0.02121 -0.2833,-0.09961 -0.7016,-0.36294 -1.7097,-0.72484 -2.9804,-1.08789 -4.9,-0.4 -8.2988,1.199219 -10.2988,4.699218 l -0.2012,0.400391 c -0.8,1.4 -1.1988,3.400391 -1.2988,5.900391 -0.2,1.5 0,3.30039 0.7988,5.40039 v 0.09961 h -0.1 c -1.1,-1.3 -2.4004,-2.301172 -3.9004,-3.201172 l -0.1992,-0.09961 c -0.8,-0.6 -1.9012,-0.999999 -3.2012,-1.5 -5.1,-1 -8.7992,0.49961 -11.1992,4.59961 -0.6,1 -1.0008,2.301162 -1.3008,3.701172 -0.3,4.5 1.3016,7.79922 4.6016,9.699218 4.2,2.5 8.6992,1.8 13.1992,-2 h 0.1 v 0.09961 c -4.6,9.5 -33.1996,9.80001 -32.5996,-9.5 -16.4,10.10001 -30.4004,-14.8 -24.4004,-23.5 -1,5.8 0.6008,10.000394 4.8008,12.40039 1.3,0.600001 2.3992,1.001172 3.1992,1.201172 4.7,0.3 8.1012,-1.30039 10.2012,-4.90039 0.6,-1.1 0.9988,-2.301172 1.2988,-3.701172 0.4,-4.4 -1.4992,-7.898828 -5.6992,-10.298828 l -0.5,-0.300782 c -1.5,-0.9 -2.9996,-1.399218 -4.5996,-1.699218 h -27.9922 c 0.028,3.84817 1.6201,6.71537 4.5937,8.40039 4.2,2.5 8.6992,1.8 13.1992,-2 h 0.1016 v 0.09961 c -4.2999,9 -30.0999,9.8 -32.5,-6.5 z"
       style="fill:#ffffff;stroke:none"
       id="path204-1" /><path
       d="m 0,125.11133 v 39.4707 c 0.5628,-0.10512 1.12078,-0.17278 1.67188,-0.20508 l -0.0488,0.0664 c 2.1689,-0.16459 4.23616,0.24161 6.16016,1.04883 0.2796,0.12113 0.55707,0.24673 0.83007,0.38476 0.084,0.0412 0.1668,0.0842 0.25,0.12696 8.8609,4.67618 14.12491,17.98401 10.36911,24.05664 0.7241,-4.49805 -0.1374,-8.01856 -2.58981,-10.46289 -0.4098,-0.38489 -0.87529,-0.73154 -1.36719,-1.06055 -0.3117,-0.22297 -0.63512,-0.43826 -0.98242,-0.63672 -1.3,-0.6 -2.39922,-0.99922 -3.19922,-1.19922 -4.7,-0.3 -8.10117,1.29844 -10.20117,4.89844 -0.3676,0.6739 -0.65248,1.39373 -0.89258,2.16601 v 5.80469 c 0.7736,2.49832 2.53347,4.554 5.29297,6.13086 l 0.5,0.29883 c 1.5,0.9 2.99961,1.40116 4.59961,1.70117 h 0.10352 l -2.5,0.69922 c -3.7,1.5 -6.10079,3.40039 -7.30079,5.40039 -0.2601,0.52018 -0.48951,1.06528 -0.69531,1.61133 v 7.11133 c 0.6703,1.92464 1.89921,3.48035 3.69531,4.67773 L 4.99808,218 c 0.7,0.2 1.5,0.50077 2.5,0.80078 0.6125,0.05 1.20178,0.069 1.76758,0.0566 0.018,-3.8e-4 0.0328,-0.003 0.0508,-0.004 0.2545,-0.005 0.48917,-0.0356 0.73437,-0.0527 0.233,-0.0181 0.47277,-0.0272 0.69727,-0.0566 3.2394,-0.3985 5.61424,-1.95284 7.15234,-4.64453 l 0.20117,-0.40039 c 0.8,-1.4 1.19881,-3.40039 1.29881,-5.90039 0.2,-1.5 -2e-4,-3.30039 -0.79881,-5.40039 v -0.0957 c 1.09941,1.29897 2.39921,2.29776 3.89841,3.19727 l 0.1992,0.0996 c 0.9,0.6 2.0008,1 3.3008,1.5 0.9821,0.19258 1.912,0.29042 2.791,0.29687 3.7361,0.0579 6.556,-1.55548 8.5117,-4.89648 0.6,-1 1.0008,-2.30117 1.3008,-3.70117 0.3,-4.5 -1.3016,-7.79921 -4.6016,-9.69922 -0.2328,-0.13852 -0.4666,-0.26392 -0.7011,-0.38281 -0.5014,-0.24157 -1.007,-0.43722 -1.5157,-0.58985 -3.5795,-1.20245 -7.3321,-0.19721 -11.0859,2.97266 v -0.0995 c 2.1796,-4.50132 9.7425,-6.92456 17.0371,-6.18555 0.1704,0.0177 0.3398,0.0394 0.5098,0.0606 0.3436,0.0419 0.6861,0.0941 1.0273,0.15039 0.282,0.0473 0.5642,0.0951 0.8438,0.15234 0.1947,0.0393 0.3867,0.0867 0.58,0.13086 1.2644,0.29272 2.4977,0.6828 3.6641,1.19141 0.01,0.004 0.018,0.008 0.027,0.0117 5.1933,2.27432 9.0958,6.75376 8.9084,13.98828 0.4413,-0.27345 0.8806,-0.50941 1.3182,-0.73242 0.1172,-0.0594 0.2348,-0.1218 0.3516,-0.17774 0.3932,-0.18902 0.7843,-0.35575 1.1738,-0.50586 0.1441,-0.0554 0.288,-0.10596 0.4316,-0.15625 0.384,-0.13465 0.7669,-0.25888 1.1465,-0.35742 0.1099,-0.0286 0.2187,-0.0486 0.3282,-0.0742 0.3287,-0.0768 0.6554,-0.14056 0.9804,-0.1914 0.1192,-0.0188 0.2387,-0.0412 0.3574,-0.0566 0.3941,-0.0506 0.784,-0.0815 1.1719,-0.0957 0.093,-0.004 0.1865,-0.006 0.2793,-0.008 0.422,-0.006 0.8423,0.003 1.2559,0.0371 0.015,0.001 0.03,0.003 0.045,0.004 0.872,0.0759 1.7234,0.24467 2.5527,0.48633 0.047,0.0135 0.096,0.0231 0.1426,0.0371 0.4336,0.13134 0.861,0.28289 1.2813,0.45508 9.7852,4.00902 15.8245,18.68242 11.584,24.93555 1,-5.80001 -0.6007,-10.00039 -4.8007,-12.40039 -1.3,-0.6 -2.3994,-0.99922 -3.1993,-1.19922 -4.7001,-0.3 -8.1012,1.29844 -10.2011,4.89844 -0.6,1.1 -0.999,2.30117 -1.2989,3.70117 -0.4001,4.5 1.4992,8.00039 5.6993,10.40039 l 0.5,0.29883 c 1.5,0.9 2.9996,1.40116 4.5996,1.70117 h 0.1034 l -2.5,0.69922 c -3.7,1.5 -6.1007,3.40039 -7.3008,5.40039 -0.5,1 -0.8992,2.09961 -1.1992,3.09961 -0.5,4.7 0.8993,8.10078 4.1992,10.30078 l 1.3008,0.79883 c 0.7001,0.2 1.5,0.50077 2.5,0.80078 4.9001,0.39999 8.2989,-1.20117 10.2989,-4.70117 l 0.2011,-0.39843 c 0.8,-1.4 1.1988,-3.40039 1.2989,-5.90039 0.2,-1.5 0,-3.30039 -0.7989,-5.40039 v -0.0996 h 0.1016 c 1.1,1.3 2.4003,2.29922 3.9003,3.19922 l 0.1993,0.0996 c 0.9001,0.6 2.0008,1 3.3007,1.5 5.1,1 8.7993,-0.4996 11.1993,-4.59961 0.6,-0.99999 1.0008,-2.29922 1.3007,-3.69922 0.3,-4.5 -1.3016,-7.80117 -4.6015,-9.70117 -4.2001,-2.5 -8.6992,-1.8 -13.1992,2 h -0.1016 v -0.0996 c 4.6,-9.5 33.1993,-9.8 32.6993,9.5 16.4,-10.1 30.4001,14.89961 24.5,23.59961 1,-5.8 -0.5988,-9.99845 -4.7989,-12.39844 -1.2999,-0.60001 -2.4012,-1.00117 -3.2011,-1.20117 -4.7001,-0.3 -8.0993,1.30039 -10.1993,4.90039 -0.5999,1.1 -1.0008,2.29922 -1.3007,3.69922 -0.4001,4.4 1.5011,7.90078 5.7011,10.30078 l 0.5,0.30078 c 1.5,0.89999 2.9997,1.39922 4.5996,1.69922 h 0.1016 l -2.5,0.69922 c -3.7,1.49999 -6.1007,3.40039 -7.3008,5.40039 -0.5,1 -0.8992,2.09961 -1.1992,3.09961 -0.5,4.8 1,8.29999 4.5,10.5 l 0.9004,0.5 c 0.7,0.3 1.5993,0.60039 2.6992,0.90039 4.9001,0.4 8.3008,-1.19922 10.3008,-4.69922 l 0.1992,-0.40039 c 0.8,-1.4 1.2009,-3.40039 1.3008,-5.90039 0.2,-1.5 -8e-4,-3.30039 -0.8008,-5.40039 v -0.0996 h 0.1 c 1.1001,1.3 2.4004,2.30117 3.9004,3.20117 l 0.2011,0.0996 c 0.7999,0.6 1.8993,1 3.1993,1.5 5.1,1 8.7991,-0.49961 11.1992,-4.59961 0.5999,-1 1.0008,-2.30117 1.3008,-3.70117 0.3,-4.5 -1.2997,-7.79922 -4.5997,-9.69922 -4.2,-2.5 -8.7007,-1.8 -13.2011,2 h -0.1 v -0.0996 c 4.6003,-9.5 33.2011,-9.8 32.7011,9.5 16.4001,-10.1 30.4001,14.8996 24.5,23.59961 1,-5.8 -0.6007,-10.00039 -4.8007,-12.40039 -1.3,-0.6 -2.3993,-0.99922 -3.1993,-1.19922 -4.7,-0.3 -8.1011,1.29844 -10.2011,4.89844 -0.6001,1.1 -0.9989,2.30117 -1.2989,3.70117 -0.4,4.4 1.4993,7.89883 5.6993,10.29883 l 0.5,0.30078 c 1.5,0.9 2.9995,1.39922 4.5996,1.69922 h 0.1 l -2.5,0.70117 c -3.7001,1.5 -6.0989,3.40039 -7.2989,5.40039 -0.5,1 -0.9012,2.0996 -1.2011,3.09961 -0.6,5 1.0011,8.49922 4.7011,10.69922 l 0.2989,0.20117 c -0.026,0 -0.044,-0.0156 -0.068,-0.0254 l 0.6777,0.39648 c 0.6012,0.23786 1.3236,0.46091 2.1934,0.72852 4.9001,0.4 8.3008,-1.20117 10.3008,-4.70117 l 0.1992,-0.39843 c 0.8,-1.4 1.2009,-3.4004 1.3008,-5.90039 0.2,-1.5 -8e-4,-3.30039 -0.8008,-5.40039 v -0.0996 h 0.1016 c 1.1,1.3 2.3984,2.29922 3.8984,3.19922 l 0.2012,0.0996 c 0.8,0.6 1.8992,1 3.1992,1.5 5.1,1 8.8011,-0.49961 11.2012,-4.59961 0.6,-1 0.9988,-2.29922 1.2988,-3.69922 0.3,-4.5 -1.2996,-7.80117 -4.5996,-9.70117 -4.2,-2.5 -8.6993,-1.8 -13.1992,2 h -0.1016 v -0.0996 c 4.6,-9.40001 33.1996,-9.79961 32.5996,9.40039 16.3,-10.2 30.3005,14.8 24.4004,23.5 1,-5.8 -0.6007,-10.00039 -4.8008,-12.40039 -1.2999,-0.6 -2.3992,-0.99922 -3.1992,-1.19922 -4.7,-0.3 -8.0992,1.30039 -10.1992,4.90039 -0.5999,1.1 -1.0008,2.29922 -1.3008,3.69922 -0.4,4.4 1.499,7.90078 5.6992,10.30078 l 0.5,0.29883 c 1.5,0.9 3.0017,1.40117 4.6016,1.70117 h 0.1016 l -2.5,0.69922 c -3.7,1.5 -6.0989,3.40039 -7.2989,5.40039 -0.5,1 -0.9011,2.09961 -1.2011,3.09961 -0.4999,4.99935 1.0002,8.6007 4.6992,10.80078 l -0.062,0.0117 c 0.3685,0.13416 0.066,0.0212 0.2832,0.0996 0.7018,0.36294 1.7098,0.72484 2.9804,1.08789 0.6118,0.0499 1.2005,0.0688 1.7656,0.0566 3.9596,-0.0865 6.7797,-1.69388 8.5293,-4.75586 l 0.2011,-0.40039 c 0.8,-1.4 1.1989,-3.40039 1.2989,-5.90039 0.2,-1.5 -1e-4,-3.30039 -0.7989,-5.40039 v -0.0996 h 0.1016 c 1.1,1.3 2.4004,2.30117 3.9004,3.20117 l 0.1992,0.0996 c 0.8,0.6 1.9012,1 3.2012,1.5 5.1,1 8.7992,-0.49961 11.1992,-4.59961 0.6,-1 1.0008,-2.30116 1.3008,-3.70117 0.3,-4.5 -1.3016,-7.79922 -4.6016,-9.69922 -4.2,-2.5 -8.6992,-1.8 -13.1992,2 h -0.1 v -0.0996 c 2.2936,-4.73678 10.5504,-7.16915 18.1816,-6.04101 v 0.0195 c 2.0829,0.31608 4.1193,0.88184 5.9708,1.75781 0.2441,0.1113 0.4828,0.23026 0.7207,0.35156 0.027,0.0141 0.055,0.0248 0.082,0.0391 0.6626,0.34219 1.3021,0.72045 1.9061,1.14258 v 0.0684 c 3.4939,2.55151 5.8299,6.51068 5.6543,12.16016 16.3,-10.1 30.3004,14.8996 24.4004,23.59961 1,-5.80001 -0.6008,-10.00039 -4.8008,-12.40039 -1.3,-0.6 -2.3992,-0.99922 -3.1992,-1.19922 -4.7,-0.3 -8.1012,1.29843 -10.2012,4.89844 -0.6,1.1 -0.9988,2.30117 -1.2988,3.70117 -0.4,4.5 1.4992,8.00039 5.6992,10.40039 l 0.5,0.29883 c 1.5,0.9 2.9996,1.40115 4.5996,1.70117 h 0.1016 l -2.5,0.69922 c -3.7,1.5 -6.1008,3.40039 -7.3008,5.40039 -0.5,1 -0.8992,2.09961 -1.1992,3.09961 -0.5,4.7 0.8992,8.10077 4.1992,10.30078 l 1.3008,0.79883 c 0.7,0.2 1.5,0.50077 2.5,0.80078 4.9,0.39999 8.2988,-1.20117 10.2988,-4.70117 l 0.2012,-0.39844 c 0.8,-1.4 1.1988,-3.40039 1.2988,-5.90039 0.2,-1.5 0,-3.30039 -0.7988,-5.40039 v -0.0996 h 0.1015 c 1.1,1.3 2.4004,2.29922 3.9004,3.19922 l 0.1993,0.0996 c 0.9,0.6 2.0007,1 3.3007,1.5 5.1,1 8.7993,-0.4996 11.1993,-4.59961 0.6,-0.99999 1.0007,-2.29922 1.3007,-3.69922 0.3,-4.5 -1.3017,-7.80117 -4.6015,-9.70117 -4.2002,-2.5 -8.6992,-1.80001 -13.1992,2 h -0.1016 v -0.0996 c 4.6,-9.5 33.1992,-9.8 32.6992,9.5 16.4,-10.1 30.4001,14.89961 24.5,23.59961 1,-5.80001 -0.5988,-9.99845 -4.7988,-12.39844 -1.3,-0.60001 -2.4012,-1.00117 -3.2012,-1.20117 -4.7,-0.3 -8.0992,1.30039 -10.1992,4.90039 -0.6,1.1 -1.0008,2.29921 -1.3008,3.69922 -0.4,4.39999 1.5012,7.90078 5.7012,10.30078 l 0.5,0.30078 c 1.5,0.89999 2.9996,1.39922 4.5996,1.69922 h 0.1016 l -2.5,0.69922 c -3.7,1.5 -6.1009,3.40039 -7.3008,5.40039 -0.5,1 -0.8992,2.09961 -1.1992,3.09961 -0.5,4.8 1,8.3 4.5,10.5 l 0.9003,0.5 c 0.7,0.3 1.5993,0.60039 2.6993,0.90039 4.9,0.4 8.3007,-1.19922 10.3007,-4.69922 l 0.1993,-0.40039 c 0.8,-1.4 1.2007,-3.40039 1.3007,-5.90039 0.2,-1.5 -7e-4,-3.30039 -0.8007,-5.40039 v -0.0996 h 0.1 c 1.0999,1.3 2.4004,2.30117 3.9004,3.20117 l 0.2011,0.0996 c 0.7999,0.6 1.8992,1 3.1992,1.5 5.1,1 8.799,-0.49961 11.1993,-4.59961 0.5996,-1 1.0007,-2.30117 1.3007,-3.70117 0.3,-4.50001 -1.2996,-7.79922 -4.5996,-9.69922 -4.2,-2.5 -8.7008,-1.8 -13.2011,2 h -0.1 v -0.0996 c 4.6002,-9.5 33.2011,-9.80001 32.7011,9.5 16.4,-10.10001 30.4,14.89961 24.5,23.59961 1,-5.8 -0.6007,-10.00039 -4.8007,-12.40039 -1.3,-0.6 -2.3993,-0.99923 -3.1993,-1.19922 -4.7,-0.3 -8.1011,1.29844 -10.2011,4.89844 -0.6001,1.1 -0.9989,2.30117 -1.2989,3.70117 -0.4,4.4 1.4993,7.89882 5.6993,10.29883 l 0.5,0.30078 c 1.5,0.9 2.9995,1.39921 4.5996,1.69922 h 0.1 l -2.5,0.70117 c -3.7002,1.5 -6.0989,3.40039 -7.2989,5.40039 -0.5,1 -0.9013,2.0996 -1.2011,3.09961 -0.6002,5 1.0011,8.49922 4.7011,10.69922 l 0.2989,0.20117 c -0.026,0 -0.046,-0.0156 -0.07,-0.0254 l 0.6777,0.39648 c 0.6012,0.23786 1.3236,0.46091 2.1934,0.72852 4.9,0.4 8.3007,-1.20117 10.3007,-4.70117 l 0.1993,-0.39844 c 0.8,-1.4 1.2007,-3.4004 1.3007,-5.90039 0.2,-1.5 -7e-4,-3.30039 -0.8007,-5.40039 v -0.0996 h 0.1015 c 1.1,1.3 2.3985,2.29922 3.8985,3.19922 l 0.2011,0.0996 c 0.8,0.6 1.8992,1 3.1992,1.5 5.1,1 8.8011,-0.49961 11.2012,-4.59961 0.6,-1 0.9988,-2.29922 1.2988,-3.69922 0.3,-4.5 -1.2996,-7.80117 -4.5996,-9.70117 -4.2,-2.5 -8.6993,-1.80001 -13.1992,2 h -0.1015 v -0.0996 c 4.6,-9.4 33.1996,-9.79961 32.5996,9.40039 16.3,-10.2 30.3004,14.8 24.4004,23.5 1,-5.8 -0.6009,-10.00039 -4.8008,-12.40039 -1.3002,-0.6 -2.3992,-0.99922 -3.1992,-1.19922 -4.7,-0.3 -8.0993,1.30039 -10.1993,4.90039 -0.6,1.1 -1.0007,2.29922 -1.3007,3.69922 -0.4,4.4 1.499,7.90078 5.6992,10.30078 l 0.5,0.29883 c 1.5,0.9 3.0015,1.40117 4.6015,1.70117 h 0.1016 l -2.5,0.69922 c -3.7,1.5 -6.0988,3.40039 -7.2988,5.40039 -0.5,1 -0.9012,2.09961 -1.2012,3.09961 -0.4999,4.99935 1.0002,8.6007 4.6992,10.80078 l -0.061,0.0117 c 0.3685,0.13416 0.066,0.0212 0.2833,0.0996 0.7016,0.36294 1.7098,0.72484 2.9804,1.08789 4.9,0.4 8.2988,-1.19922 10.2988,-4.69922 l 0.2012,-0.40039 c 0.8,-1.4 1.1988,-3.40039 1.2988,-5.90039 0.2,-1.5 0,-3.30039 -0.7988,-5.40039 v -0.0996 h 0.1 c 1.1,1.3 2.4004,2.30117 3.9004,3.20117 l 0.1992,0.0996 c 0.8,0.6 1.9012,1 3.2012,1.5 5.1,1 8.7992,-0.49961 11.1992,-4.59961 0.6,-1 1.0008,-2.30116 1.3008,-3.70117 0.3,-4.5 -1.3016,-7.79922 -4.6016,-9.69922 -4.2,-2.5 -8.6992,-1.8 -13.1992,2 h -0.1 v -0.0996 c 4.6,-9.5 33.1996,-9.80001 32.5996,9.5 15.597,-9.60552 29.0088,12.4356 25.125,22.10156 h 2.3047 c 5.2714,-5.0702 18.5878,-5.99202 25.9531,0 h 62.0273 l -360.1601,-207.91406 -0.01,0.0762 -254.9082,-147.1543 -0.016,0.0234 z m 535.72462,355.0625 c -3.8284,0.15456 -6.6625,1.77383 -8.5,4.92383 -0.6,1.1 -0.9988,2.30117 -1.2988,3.70117 -0.1164,1.27961 -0.032,2.47925 0.2402,3.60156 h 19.4492 c 0.5238,-5.07802 -1.1368,-8.79997 -4.9902,-11.00195 -1.3,-0.6 -2.3992,-1.00117 -3.1992,-1.20117 -0.5875,-0.0375 -1.1543,-0.0455 -1.7012,-0.0234 z m 19.5625,11.05469 c -1.6224,-0.0422 -3.2692,0.35234 -4.9277,1.17187 h 9.2187 c -1.4026,-0.73852 -2.8362,-1.13401 -4.291,-1.17187 z"
       style="fill:#ffffff;stroke:none"
       id="path204-1-6" /></g></g></svg>
