<?xml version="1.0" encoding="UTF-8" standalone="no"?>
<svg
   xmlns:dc="http://purl.org/dc/elements/1.1/"
   xmlns:cc="http://creativecommons.org/ns#"
   xmlns:rdf="http://www.w3.org/1999/02/22-rdf-syntax-ns#"
   xmlns:svg="http://www.w3.org/2000/svg"
   xmlns="http://www.w3.org/2000/svg"
   version="1.1"
   id="svg2"
   width="600"
   height="400"
   viewBox="0 0 600 400">
  <defs
     id="defs6" />
  <g
     id="g10">
    <g
       id="g14">
      <path
         style="fill:#fefefe"
         d="M 0,200 V 0 H 300 600 V 200 400 H 300 0 Z"
         id="path18" />
      <path
         style="fill:#00007f"
         d="M 0,200 V 0 H 300 600 V 200 400 H 300 0 Z M 315,335.5 V 324 h 11 11 v -13 -13 h -35 -35 v 13 13 h 11 11 v 11.5 11.5 h 13 13 z m 58,-59.54637 c 13.01174,-6.53435 20.8795,-24.97328 18.18967,-42.62943 -1.96282,-12.88406 -5.96864,-19.62207 -22.07069,-37.12414 -8.99897,-9.78139 -14.38391,-16.47278 -15.16763,-18.84748 -1.78562,-5.41047 -0.63218,-17.41262 2.22693,-23.17245 2.63344,-5.30521 7.71933,-9.18013 12.04905,-9.18013 1.61236,0 5.84831,1.16688 9.41322,2.59307 3.93017,1.57232 7.40888,2.36036 8.83713,2.00189 4.70386,-1.1806 7.50274,-14.30558 7.51477,-35.23962 0.01,-16.793353 -1.91896,-23.832809 -8.55016,-31.208301 C 379.34187,76.361897 373.04306,73.520955 357,70.318744 345.61097,68.045483 343.06999,67.196441 340.75,64.888988 339.2375,63.38466 338,61.094359 338,59.799429 c 0,-3.034178 -2.37401,-6.402466 -4.99576,-7.088068 -2.81757,-0.736811 -7.52873,3.407147 -10.42388,9.1689 -5.39181,10.730421 -7.53089,30.01323 -4.67243,42.119739 2.32978,9.86739 7.71951,19.42217 14.5713,25.83169 5.86262,5.48419 6.1699,5.99194 4.99643,8.25594 -0.68771,1.32681 -2.03287,5.95216 -2.98925,10.27856 l -1.73887,7.8662 -7.786,-7.8662 C 301.3266,124.4878 255.49964,75.941406 253.34516,72.5 251.96785,70.3 249.41267,66.025 247.66698,63 245.09274,58.539261 243.9302,57.435981 241.51457,57.161198 227.95838,55.61915 215.91087,74.647298 215.65784,98 c -0.17715,16.34862 3.49508,23.85573 20.12366,41.1387 l 9.96899,10.3613 -5.99115,3.48661 c -12.09968,7.04153 -20.37764,19.28822 -23.27565,34.4348 -2.70973,14.16246 -1.73097,23.40465 4.58496,43.29479 3.75718,11.8321 3.92982,12.89203 2.72151,16.70866 -1.08915,3.44021 -1.75758,4.12353 -4.29016,4.38574 -10.48904,1.08595 -13.5,4.02671 -13.5,13.18519 0,4.08268 0.49,5.58512 2.46592,7.56104 l 2.46592,2.46592 40.17646,-0.26138 40.17647,-0.26137 2.06193,-2.76214 c 2.88715,-3.8676 3.54325,-18.71545 1.22658,-27.75829 C 291.40751,231.62238 285.80596,224.58854 269.5,212.49523 253.46113,200.6 249,194.83422 249,186 c 0,-7.48615 4.86338,-15.45813 10.97467,-17.98951 3.24467,-1.34398 -1.92556,-6.46745 52.46404,51.98951 34.9316,37.54385 37.98787,41.11734 41.87168,48.95774 3.18895,6.43768 4.78672,8.61366 6.68961,9.11053 3.25284,0.84937 7.63584,0.077 12,-2.11464 z"
         id="path16" />
    </g>
  </g>
</svg>
